nohup: ignoring input
Video Service listening on 0.0.0.0:8081
Processing video /tmp/tmpnh5whpo9/ForBiggerBlazes.mp4 for format home
Transcoding /tmp/tmpnh5whpo9/ForBiggerBlazes.mp4 to 480p -> /tmp/tmpnh5whpo9/ForBiggerBlazes.mp4_480p.mp4
ffmpeg version 8.0.1-3 Copyright (c) 2000-2025 the FFmpeg developers
  built with gcc 15 (Debian 15.2.0-12)
  configuration: --prefix=/usr --extra-version=3 --toolchain=hardened --libdir=/usr/lib/x86_64-linux-gnu --incdir=/usr/include/x86_64-linux-gnu --arch=amd64 --enable-gpl --disable-stripping --disable-pocketsphinx --disable-libcaca --disable-libmfx --disable-omx --enable-gnutls --enable-libaom --enable-libass --enable-libbs2b --enable-libcdio --enable-libcodec2 --enable-libdav1d --enable-libflite --enable-libfontconfig --enable-libfreetype --enable-libfribidi --enable-libglslang --enable-libgme --enable-libgsm --enable-libharfbuzz --enable-libmp3lame --enable-libmysofa --enable-libopenjpeg --enable-libopenmpt --enable-libopus --enable-librubberband --enable-libshine --enable-libsnappy --enable-libsoxr --enable-libspeex --enable-libtheora --enable-libtwolame --enable-libvidstab --enable-libvorbis --enable-libvpx --enable-libwebp --enable-libx265 --enable-libxml2 --enable-libxvid --enable-libzimg --enable-openal --enable-opencl --enable-opengl --disable-sndio --enable-libvpl --enable-libdc1394 --enable-libdrm --enable-libiec61883 --enable-chromaprint --enable-frei0r --enable-ladspa --enable-libbluray --enable-libdvdnav --enable-libdvdread --enable-libjack --enable-libjxl --enable-libpulse --enable-librabbitmq --enable-librist --enable-libsrt --enable-libssh --enable-libsvtav1 --enable-libx264 --enable-libzmq --enable-libzvbi --enable-lv2 --enable-sdl2 --enable-libplacebo --enable-librav1e --enable-librsvg --enable-shared
  libavutil      60.  8.100 / 60.  8.100
  libavcodec     62. 11.100 / 62. 11.100
  libavformat    62.  3.100 / 62.  3.100
  libavdevice    62.  1.100 / 62.  1.100
  libavfilter    11.  4.100 / 11.  4.100
  libswscale      9.  1.100 /  9.  1.100
  libswresample   6.  1.100 /  6.  1.100
Input #0, mov,mp4,m4a,3gp,3g2,mj2, from '/tmp/tmpnh5whpo9/ForBiggerBlazes.mp4':
  Metadata:
    major_brand     : mp42
    minor_version   : 0
    compatible_brands: isommp42
    creation_time   : 2013-11-21T04:34:28.000000Z
  Duration: 00:00:15.02, start: 0.000000, bitrate: 1330 kb/s
  Stream #0:0[0x1](und): Video: h264 (High) (avc1 / 0x31637661), yuv420p(progressive), 1280x720, 1135 kb/s, 23.98 fps, 23.98 tbr, 48k tbn (default)
    Metadata:
      handler_name    : VideoHandler
      vendor_id       : [0][0][0][0]
  Stream #0:1[0x2](und): Audio: aac (LC) (mp4a / 0x6134706D), 44100 Hz, stereo, fltp, 192 kb/s (default)
    Metadata:
      creation_time   : 2013-11-21T04:34:29.000000Z
      handler_name    : IsoMedia File Produced by Google, 5-11-2011
      vendor_id       : [0][0][0][0]
Stream mapping:
  Stream #0:0 -> #0:0 (h264 (native) -> h264 (libx264))
  Stream #0:1 -> #0:1 (aac (native) -> aac (native))
Press [q] to stop, [?] for help
[libx264 @ 0x561845038080] using cpu capabilities: MMX2 SSE2Fast SSSE3 SSE4.2 AVX FMA3 BMI2 AVX2
[libx264 @ 0x561845038080] profile High, level 3.0, 4:2:0, 8-bit
[libx264 @ 0x561845038080] 264 - core 165 - H.264/MPEG-4 AVC codec - Copyleft 2003-2025 - http://www.videolan.org/x264.html - options: cabac=1 ref=2 deblock=1:0:0 analyse=0x3:0x113 me=hex subme=4 psy=1 psy_rd=1.00:0.00 mixed_ref=0 me_range=16 chroma_me=1 trellis=1 8x8dct=1 cqm=0 deadzone=21,11 fast_pskip=1 chroma_qp_offset=0 threads=6 lookahead_threads=1 sliced_threads=0 nr=0 decimate=1 interlaced=0 bluray_compat=0 constrained_intra=0 bframes=3 b_pyramid=2 b_adapt=1 b_bias=0 direct=1 weightb=1 open_gop=0 weightp=1 keyint=250 keyint_min=23 scenecut=40 intra_refresh=0 rc_lookahead=20 rc=crf mbtree=1 crf=28.0 qcomp=0.60 qpmin=0 qpmax=69 qpstep=4 ip_ratio=1.40 aq=1:1.00
Output #0, mp4, to '/tmp/tmpnh5whpo9/ForBiggerBlazes.mp4_480p.mp4':
  Metadata:
    major_brand     : mp42
    minor_version   : 0
    compatible_brands: isommp42
    encoder         : Lavf62.3.100
  Stream #0:0(und): Video: h264 (avc1 / 0x31637661), yuv420p(tv, progressive), 854x480, q=2-31, 23.98 fps, 24k tbn (default)
    Metadata:
      encoder         : Lavc62.11.100 libx264
      handler_name    : VideoHandler
      vendor_id       : [0][0][0][0]
    Side data:
      cpb: bitrate max/min/avg: 0/0/0 buffer size: 0 vbv_delay: N/A
  Stream #0:1(und): Audio: aac (LC) (mp4a / 0x6134706D), 44100 Hz, stereo, fltp, 128 kb/s (default)
    Metadata:
      encoder         : Lavc62.11.100 aac
      creation_time   : 2013-11-21T04:34:29.000000Z
      handler_name    : IsoMedia File Produced by Google, 5-11-2011
      vendor_id       : [0][0][0][0]
frame=    0 fps=0.0 q=0.0 size=       0KiB time=N/A bitrate=N/A speed=N/A elapsed=0:00:00.50    frame=   15 fps= 15 q=33.0 size=       0KiB time=00:00:00.54 bitrate=   0.7kbits/s speed=0.54x elapsed=0:00:01.00    frame=   42 fps= 28 q=33.0 size=       0KiB time=00:00:01.66 bitrate=   0.2kbits/s speed=1.11x elapsed=0:00:01.50    frame=   60 fps= 30 q=33.0 size=       0KiB time=00:00:02.41 bitrate=   0.2kbits/s speed= 1.2x elapsed=0:00:02.00    frame=   71 fps= 28 q=30.0 size=       0KiB time=00:00:02.87 bitrate=   0.1kbits/s speed=1.14x elapsed=0:00:02.51    frame=   84 fps= 28 q=33.0 size=       0KiB time=00:00:03.42 bitrate=   0.1kbits/s speed=1.13x elapsed=0:00:03.01    frame=   95 fps= 27 q=30.0 size=       0KiB time=00:00:03.87 bitrate=   0.1kbits/s speed= 1.1x elapsed=0:00:03.51    frame=  111 fps= 28 q=33.0 size=     256KiB time=00:00:04.54 bitrate= 461.4kbits/s speed=1.13x elapsed=0:00:04.03    frame=  123 fps= 27 q=33.0 size=     256KiB time=00:00:05.04 bitrate= 415.6kbits/s speed=1.11x elapsed=0:00:04.53    frame=  131 fps= 26 q=33.0 size=     256KiB time=00:00:05.38 bitrate= 389.8kbits/s speed=1.07x elapsed=0:00:05.03    frame=  142 fps= 26 q=33.0 size=     256KiB time=00:00:05.83 bitrate= 359.2kbits/s speed=1.06x elapsed=0:00:05.53    frame=  151 fps= 25 q=33.0 size=     512KiB time=00:00:06.21 bitrate= 675.0kbits/s speed=1.03x elapsed=0:00:06.03    frame=  168 fps= 26 q=33.0 size=     512KiB time=00:00:06.92 bitrate= 605.9kbits/s speed=1.06x elapsed=0:00:06.53    frame=  178 fps= 25 q=33.0 size=     512KiB time=00:00:07.34 bitrate= 571.4kbits/s speed=1.04x elapsed=0:00:07.03    frame=  187 fps= 25 q=33.0 size=     512KiB time=00:00:07.71 bitrate= 543.6kbits/s speed=1.02x elapsed=0:00:07.53    frame=  203 fps= 25 q=33.0 size=     512KiB time=00:00:08.38 bitrate= 500.4kbits/s speed=1.04x elapsed=0:00:08.03    frame=  215 fps= 25 q=33.0 size=     512KiB time=00:00:08.88 bitrate= 472.2kbits/s speed=1.04x elapsed=0:00:08.53    frame=  228 fps= 25 q=33.0 size=     512KiB time=00:00:09.42 bitrate= 445.0kbits/s speed=1.04x elapsed=0:00:09.04    frame=  250 fps= 26 q=33.0 size=     768KiB time=00:00:10.34 bitrate= 608.3kbits/s speed=1.08x elapsed=0:00:09.55    frame=  285 fps= 28 q=33.0 size=     768KiB time=00:00:11.80 bitrate= 533.1kbits/s speed=1.17x elapsed=0:00:10.05    frame=  307 fps= 29 q=33.0 size=     768KiB time=00:00:12.72 bitrate= 494.6kbits/s speed= 1.2x elapsed=0:00:10.56    frame=  335 fps= 30 q=33.0 size=     768KiB time=N/A bitrate=N/A speed=N/A elapsed=0:00:11.06    [out#0/mp4 @ 0x561844fdde80] video:628KiB audio:239KiB subtitle:0KiB other streams:0KiB global headers:0KiB muxing overhead: 1.422050%
frame=  360 fps= 32 q=-1.0 Lsize=     879KiB time=00:00:14.93 bitrate= 482.4kbits/s speed=1.33x elapsed=0:00:11.24    
[libx264 @ 0x561845038080] frame I:7     Avg QP:22.68  size:  8040
[libx264 @ 0x561845038080] frame P:140   Avg QP:23.08  size:  2437
[libx264 @ 0x561845038080] frame B:213   Avg QP:26.13  size:  1151
[libx264 @ 0x561845038080] consecutive B-frames: 17.5%  8.9%  5.8% 67.8%
[libx264 @ 0x561845038080] mb I  I16..4: 47.8% 43.1%  9.1%
[libx264 @ 0x561845038080] mb P  I16..4: 13.6% 13.8%  0.7%  P16..4:  6.9%  1.7%  0.4%  0.0%  0.0%    skip:62.8%
[libx264 @ 0x561845038080] mb B  I16..4:  1.8%  5.1%  0.1%  B16..8:  6.7%  1.4%  0.1%  direct: 2.5%  skip:82.3%  L0:47.0% L1:47.2% BI: 5.8%
[libx264 @ 0x561845038080] 8x8 transform intra:54.2% inter:61.0%
[libx264 @ 0x561845038080] coded y,uvDC,uvAC intra: 28.8% 42.7% 9.9% inter: 2.2% 3.0% 0.3%
[libx264 @ 0x561845038080] i16 v,h,dc,p: 54% 26% 10% 10%
[libx264 @ 0x561845038080] i8 v,h,dc,ddl,ddr,vr,hd,vl,hu: 24% 27% 20%  5%  5%  5%  5%  5%  5%
[libx264 @ 0x561845038080] i4 v,h,dc,ddl,ddr,vr,hd,vl,hu: 28% 25% 15%  4%  7%  6%  7%  5%  4%
[libx264 @ 0x561845038080] i8c dc,h,v,p: 53% 21% 20%  6%
[libx264 @ 0x561845038080] Weighted P-Frames: Y:12.9% UV:3.6%
[libx264 @ 0x561845038080] ref P L0: 81.8% 18.2%
[libx264 @ 0x561845038080] ref B L0: 86.1% 13.9%
[libx264 @ 0x561845038080] ref B L1: 96.3%  3.7%
[libx264 @ 0x561845038080] kb/s:342.45
[aac @ 0x56184510c980] Qavg: 1108.607
Transcoding /tmp/tmpnh5whpo9/ForBiggerBlazes.mp4 to 720p -> /tmp/tmpnh5whpo9/ForBiggerBlazes.mp4_720p.mp4
ffmpeg version 8.0.1-3 Copyright (c) 2000-2025 the FFmpeg developers
  built with gcc 15 (Debian 15.2.0-12)
  configuration: --prefix=/usr --extra-version=3 --toolchain=hardened --libdir=/usr/lib/x86_64-linux-gnu --incdir=/usr/include/x86_64-linux-gnu --arch=amd64 --enable-gpl --disable-stripping --disable-pocketsphinx --disable-libcaca --disable-libmfx --disable-omx --enable-gnutls --enable-libaom --enable-libass --enable-libbs2b --enable-libcdio --enable-libcodec2 --enable-libdav1d --enable-libflite --enable-libfontconfig --enable-libfreetype --enable-libfribidi --enable-libglslang --enable-libgme --enable-libgsm --enable-libharfbuzz --enable-libmp3lame --enable-libmysofa --enable-libopenjpeg --enable-libopenmpt --enable-libopus --enable-librubberband --enable-libshine --enable-libsnappy --enable-libsoxr --enable-libspeex --enable-libtheora --enable-libtwolame --enable-libvidstab --enable-libvorbis --enable-libvpx --enable-libwebp --enable-libx265 --enable-libxml2 --enable-libxvid --enable-libzimg --enable-openal --enable-opencl --enable-opengl --disable-sndio --enable-libvpl --enable-libdc1394 --enable-libdrm --enable-libiec61883 --enable-chromaprint --enable-frei0r --enable-ladspa --enable-libbluray --enable-libdvdnav --enable-libdvdread --enable-libjack --enable-libjxl --enable-libpulse --enable-librabbitmq --enable-librist --enable-libsrt --enable-libssh --enable-libsvtav1 --enable-libx264 --enable-libzmq --enable-libzvbi --enable-lv2 --enable-sdl2 --enable-libplacebo --enable-librav1e --enable-librsvg --enable-shared
  libavutil      60.  8.100 / 60.  8.100
  libavcodec     62. 11.100 / 62. 11.100
  libavformat    62.  3.100 / 62.  3.100
  libavdevice    62.  1.100 / 62.  1.100
  libavfilter    11.  4.100 / 11.  4.100
  libswscale      9.  1.100 /  9.  1.100
  libswresample   6.  1.100 /  6.  1.100
Input #0, mov,mp4,m4a,3gp,3g2,mj2, from '/tmp/tmpnh5whpo9/ForBiggerBlazes.mp4':
  Metadata:
    major_brand     : mp42
    minor_version   : 0
    compatible_brands: isommp42
    creation_time   : 2013-11-21T04:34:28.000000Z
  Duration: 00:00:15.02, start: 0.000000, bitrate: 1330 kb/s
  Stream #0:0[0x1](und): Video: h264 (High) (avc1 / 0x31637661), yuv420p(progressive), 1280x720, 1135 kb/s, 23.98 fps, 23.98 tbr, 48k tbn (default)
    Metadata:
      handler_name    : VideoHandler
      vendor_id       : [0][0][0][0]
  Stream #0:1[0x2](und): Audio: aac (LC) (mp4a / 0x6134706D), 44100 Hz, stereo, fltp, 192 kb/s (default)
    Metadata:
      creation_time   : 2013-11-21T04:34:29.000000Z
      handler_name    : IsoMedia File Produced by Google, 5-11-2011
      vendor_id       : [0][0][0][0]
Stream mapping:
  Stream #0:0 -> #0:0 (h264 (native) -> h264 (libx264))
  Stream #0:1 -> #0:1 (aac (native) -> aac (native))
Press [q] to stop, [?] for help
[libx264 @ 0x5568d81a5080] using cpu capabilities: MMX2 SSE2Fast SSSE3 SSE4.2 AVX FMA3 BMI2 AVX2
[libx264 @ 0x5568d81a5080] profile High, level 3.1, 4:2:0, 8-bit
[libx264 @ 0x5568d81a5080] 264 - core 165 - H.264/MPEG-4 AVC codec - Copyleft 2003-2025 - http://www.videolan.org/x264.html - options: cabac=1 ref=2 deblock=1:0:0 analyse=0x3:0x113 me=hex subme=4 psy=1 psy_rd=1.00:0.00 mixed_ref=0 me_range=16 chroma_me=1 trellis=1 8x8dct=1 cqm=0 deadzone=21,11 fast_pskip=1 chroma_qp_offset=0 threads=6 lookahead_threads=1 sliced_threads=0 nr=0 decimate=1 interlaced=0 bluray_compat=0 constrained_intra=0 bframes=3 b_pyramid=2 b_adapt=1 b_bias=0 direct=1 weightb=1 open_gop=0 weightp=1 keyint=250 keyint_min=23 scenecut=40 intra_refresh=0 rc_lookahead=20 rc=crf mbtree=1 crf=28.0 qcomp=0.60 qpmin=0 qpmax=69 qpstep=4 ip_ratio=1.40 aq=1:1.00
Output #0, mp4, to '/tmp/tmpnh5whpo9/ForBiggerBlazes.mp4_720p.mp4':
  Metadata:
    major_brand     : mp42
    minor_version   : 0
    compatible_brands: isommp42
    encoder         : Lavf62.3.100
  Stream #0:0(und): Video: h264 (avc1 / 0x31637661), yuv420p(tv, progressive), 1280x720, q=2-31, 23.98 fps, 24k tbn (default)
    Metadata:
      encoder         : Lavc62.11.100 libx264
      handler_name    : VideoHandler
      vendor_id       : [0][0][0][0]
    Side data:
      cpb: bitrate max/min/avg: 0/0/0 buffer size: 0 vbv_delay: N/A
  Stream #0:1(und): Audio: aac (LC) (mp4a / 0x6134706D), 44100 Hz, stereo, fltp, 128 kb/s (default)
    Metadata:
      encoder         : Lavc62.11.100 aac
      creation_time   : 2013-11-21T04:34:29.000000Z
      handler_name    : IsoMedia File Produced by Google, 5-11-2011
      vendor_id       : [0][0][0][0]
frame=    0 fps=0.0 q=0.0 size=       0KiB time=N/A bitrate=N/A speed=N/A elapsed=0:00:00.50    frame=   15 fps= 15 q=33.0 size=       0KiB time=00:00:00.54 bitrate=   0.7kbits/s speed=0.54x elapsed=0:00:01.00    frame=   27 fps= 18 q=33.0 size=       0KiB time=00:00:01.04 bitrate=   0.4kbits/s speed=0.691x elapsed=0:00:01.50    frame=   41 fps= 20 q=33.0 size=       0KiB time=00:00:01.62 bitrate=   0.2kbits/s speed=0.809x elapsed=0:00:02.01    frame=   53 fps= 21 q=33.0 size=       0KiB time=00:00:02.12 bitrate=   0.2kbits/s speed=0.845x elapsed=0:00:02.51    frame=   66 fps= 22 q=33.0 size=       0KiB time=00:00:02.66 bitrate=   0.1kbits/s speed=0.885x elapsed=0:00:03.01    frame=   70 fps= 20 q=33.0 size=       0KiB time=00:00:02.83 bitrate=   0.1kbits/s speed=0.806x elapsed=0:00:03.51    frame=   81 fps= 20 q=33.0 size=       0KiB time=00:00:03.29 bitrate=   0.1kbits/s speed=0.819x elapsed=0:00:04.02    frame=   91 fps= 20 q=33.0 size=     256KiB time=00:00:03.71 bitrate= 565.1kbits/s speed=0.82x elapsed=0:00:04.52    frame=   98 fps= 19 q=33.0 size=     256KiB time=00:00:04.00 bitrate= 523.9kbits/s speed=0.796x elapsed=0:00:05.03    frame=  106 fps= 19 q=33.0 size=     256KiB time=00:00:04.33 bitrate= 483.6kbits/s speed=0.783x elapsed=0:00:05.54    frame=  111 fps= 18 q=33.0 size=     256KiB time=00:00:04.54 bitrate= 461.4kbits/s speed=0.752x elapsed=0:00:06.04    frame=  116 fps= 18 q=33.0 size=     512KiB time=00:00:04.75 bitrate= 882.2kbits/s speed=0.727x elapsed=0:00:06.54    frame=  129 fps= 18 q=33.0 size=     512KiB time=00:00:05.29 bitrate= 791.9kbits/s speed=0.752x elapsed=0:00:07.04    frame=  133 fps= 18 q=33.0 size=     512KiB time=00:00:05.46 bitrate= 767.7kbits/s speed=0.724x elapsed=0:00:07.54    frame=  141 fps= 18 q=33.0 size=     768KiB time=00:00:05.79 bitrate=1085.3kbits/s speed=0.72x elapsed=0:00:08.04    frame=  148 fps= 17 q=33.0 size=     768KiB time=00:00:06.08 bitrate=1033.2kbits/s speed=0.712x elapsed=0:00:08.54    frame=  155 fps= 17 q=33.0 size=     768KiB time=00:00:06.38 bitrate= 986.0kbits/s speed=0.705x elapsed=0:00:09.05    frame=  167 fps= 17 q=33.0 size=    1024KiB time=00:00:06.88 bitrate=1219.0kbits/s speed=0.72x elapsed=0:00:09.55    frame=  175 fps= 17 q=33.0 size=    1024KiB time=00:00:07.21 bitrate=1162.6kbits/s speed=0.718x elapsed=0:00:10.05    frame=  184 fps= 17 q=33.0 size=    1024KiB time=00:00:07.59 bitrate=1105.1kbits/s speed=0.719x elapsed=0:00:10.55    frame=  192 fps= 17 q=33.0 size=    1024KiB time=00:00:07.92 bitrate=1058.6kbits/s speed=0.717x elapsed=0:00:11.05    frame=  203 fps= 18 q=33.0 size=    1024KiB time=00:00:08.38 bitrate=1000.7kbits/s speed=0.724x elapsed=0:00:11.57    frame=  215 fps= 18 q=33.0 size=    1280KiB time=00:00:08.88 bitrate=1180.4kbits/s speed=0.736x elapsed=0:00:12.07    frame=  221 fps= 18 q=30.0 size=    1280KiB time=00:00:09.13 bitrate=1148.0kbits/s speed=0.726x elapsed=0:00:12.57    frame=  236 fps= 18 q=33.0 size=    1280KiB time=00:00:09.75 bitrate=1074.4kbits/s speed=0.747x elapsed=0:00:13.07    frame=  264 fps= 19 q=33.0 size=    1280KiB time=00:00:10.92 bitrate= 959.6kbits/s speed=0.805x elapsed=0:00:13.57    frame=  285 fps= 20 q=33.0 size=    1280KiB time=00:00:11.84 bitrate= 885.3kbits/s speed=0.841x elapsed=0:00:14.07    frame=  307 fps= 21 q=33.0 size=    1280KiB time=00:00:12.72 bitrate= 824.3kbits/s speed=0.873x elapsed=0:00:14.57    frame=  330 fps= 22 q=33.0 size=    1280KiB time=N/A bitrate=N/A speed=N/A elapsed=0:00:15.08    [out#0/mp4 @ 0x5568d814ae80] video:1223KiB audio:239KiB subtitle:0KiB other streams:0KiB global headers:0KiB muxing overhead: 0.830075%
frame=  360 fps= 23 q=-1.0 Lsize=    1474KiB time=00:00:14.93 bitrate= 808.8kbits/s speed=0.961x elapsed=0:00:15.54    
[libx264 @ 0x5568d81a5080] frame I:8     Avg QP:20.14  size: 13140
[libx264 @ 0x5568d81a5080] frame P:152   Avg QP:22.86  size:  5463
[libx264 @ 0x5568d81a5080] frame B:200   Avg QP:24.11  size:  1583
[libx264 @ 0x5568d81a5080] consecutive B-frames: 23.1%  6.1%  7.5% 63.3%
[libx264 @ 0x5568d81a5080] mb I  I16..4: 52.5% 40.6%  7.0%
[libx264 @ 0x5568d81a5080] mb P  I16..4: 14.4% 20.2%  0.5%  P16..4:  8.2%  1.6%  0.3%  0.0%  0.0%    skip:54.9%
[libx264 @ 0x5568d81a5080] mb B  I16..4:  1.4%  3.5%  0.0%  B16..8:  6.2%  0.8%  0.0%  direct: 2.3%  skip:85.7%  L0:52.3% L1:44.2% BI: 3.5%
[libx264 @ 0x5568d81a5080] 8x8 transform intra:57.5% inter:68.1%
[libx264 @ 0x5568d81a5080] coded y,uvDC,uvAC intra: 24.4% 40.1% 6.3% inter: 1.6% 3.8% 0.1%
[libx264 @ 0x5568d81a5080] i16 v,h,dc,p: 58% 22% 10% 10%
[libx264 @ 0x5568d81a5080] i8 v,h,dc,ddl,ddr,vr,hd,vl,hu: 28% 29% 20%  4%  4%  4%  4%  4%  3%
[libx264 @ 0x5568d81a5080] i4 v,h,dc,ddl,ddr,vr,hd,vl,hu: 28% 25% 13%  4%  7%  6%  8%  5%  4%
[libx264 @ 0x5568d81a5080] i8c dc,h,v,p: 54% 21% 20%  5%
[libx264 @ 0x5568d81a5080] Weighted P-Frames: Y:11.8% UV:3.3%
[libx264 @ 0x5568d81a5080] ref P L0: 83.6% 16.4%
[libx264 @ 0x5568d81a5080] ref B L0: 90.0% 10.0%
[libx264 @ 0x5568d81a5080] ref B L1: 96.1%  3.9%
[libx264 @ 0x5568d81a5080] kb/s:667.15
[aac @ 0x5568d8279980] Qavg: 1108.607
Transcoding /tmp/tmpnh5whpo9/ForBiggerBlazes.mp4 to 1080p -> /tmp/tmpnh5whpo9/ForBiggerBlazes.mp4_1080p.mp4
ffmpeg version 8.0.1-3 Copyright (c) 2000-2025 the FFmpeg developers
  built with gcc 15 (Debian 15.2.0-12)
  configuration: --prefix=/usr --extra-version=3 --toolchain=hardened --libdir=/usr/lib/x86_64-linux-gnu --incdir=/usr/include/x86_64-linux-gnu --arch=amd64 --enable-gpl --disable-stripping --disable-pocketsphinx --disable-libcaca --disable-libmfx --disable-omx --enable-gnutls --enable-libaom --enable-libass --enable-libbs2b --enable-libcdio --enable-libcodec2 --enable-libdav1d --enable-libflite --enable-libfontconfig --enable-libfreetype --enable-libfribidi --enable-libglslang --enable-libgme --enable-libgsm --enable-libharfbuzz --enable-libmp3lame --enable-libmysofa --enable-libopenjpeg --enable-libopenmpt --enable-libopus --enable-librubberband --enable-libshine --enable-libsnappy --enable-libsoxr --enable-libspeex --enable-libtheora --enable-libtwolame --enable-libvidstab --enable-libvorbis --enable-libvpx --enable-libwebp --enable-libx265 --enable-libxml2 --enable-libxvid --enable-libzimg --enable-openal --enable-opencl --enable-opengl --disable-sndio --enable-libvpl --enable-libdc1394 --enable-libdrm --enable-libiec61883 --enable-chromaprint --enable-frei0r --enable-ladspa --enable-libbluray --enable-libdvdnav --enable-libdvdread --enable-libjack --enable-libjxl --enable-libpulse --enable-librabbitmq --enable-librist --enable-libsrt --enable-libssh --enable-libsvtav1 --enable-libx264 --enable-libzmq --enable-libzvbi --enable-lv2 --enable-sdl2 --enable-libplacebo --enable-librav1e --enable-librsvg --enable-shared
  libavutil      60.  8.100 / 60.  8.100
  libavcodec     62. 11.100 / 62. 11.100
  libavformat    62.  3.100 / 62.  3.100
  libavdevice    62.  1.100 / 62.  1.100
  libavfilter    11.  4.100 / 11.  4.100
  libswscale      9.  1.100 /  9.  1.100
  libswresample   6.  1.100 /  6.  1.100
Input #0, mov,mp4,m4a,3gp,3g2,mj2, from '/tmp/tmpnh5whpo9/ForBiggerBlazes.mp4':
  Metadata:
    major_brand     : mp42
    minor_version   : 0
    compatible_brands: isommp42
    creation_time   : 2013-11-21T04:34:28.000000Z
  Duration: 00:00:15.02, start: 0.000000, bitrate: 1330 kb/s
  Stream #0:0[0x1](und): Video: h264 (High) (avc1 / 0x31637661), yuv420p(progressive), 1280x720, 1135 kb/s, 23.98 fps, 23.98 tbr, 48k tbn (default)
    Metadata:
      handler_name    : VideoHandler
      vendor_id       : [0][0][0][0]
  Stream #0:1[0x2](und): Audio: aac (LC) (mp4a / 0x6134706D), 44100 Hz, stereo, fltp, 192 kb/s (default)
    Metadata:
      creation_time   : 2013-11-21T04:34:29.000000Z
      handler_name    : IsoMedia File Produced by Google, 5-11-2011
      vendor_id       : [0][0][0][0]
Stream mapping:
  Stream #0:0 -> #0:0 (h264 (native) -> h264 (libx264))
  Stream #0:1 -> #0:1 (aac (native) -> aac (native))
Press [q] to stop, [?] for help
[libx264 @ 0x555e7dedf080] using cpu capabilities: MMX2 SSE2Fast SSSE3 SSE4.2 AVX FMA3 BMI2 AVX2
[libx264 @ 0x555e7dedf080] profile High, level 4.0, 4:2:0, 8-bit
[libx264 @ 0x555e7dedf080] 264 - core 165 - H.264/MPEG-4 AVC codec - Copyleft 2003-2025 - http://www.videolan.org/x264.html - options: cabac=1 ref=2 deblock=1:0:0 analyse=0x3:0x113 me=hex subme=4 psy=1 psy_rd=1.00:0.00 mixed_ref=0 me_range=16 chroma_me=1 trellis=1 8x8dct=1 cqm=0 deadzone=21,11 fast_pskip=1 chroma_qp_offset=0 threads=6 lookahead_threads=1 sliced_threads=0 nr=0 decimate=1 interlaced=0 bluray_compat=0 constrained_intra=0 bframes=3 b_pyramid=2 b_adapt=1 b_bias=0 direct=1 weightb=1 open_gop=0 weightp=1 keyint=250 keyint_min=23 scenecut=40 intra_refresh=0 rc_lookahead=20 rc=crf mbtree=1 crf=28.0 qcomp=0.60 qpmin=0 qpmax=69 qpstep=4 ip_ratio=1.40 aq=1:1.00
Output #0, mp4, to '/tmp/tmpnh5whpo9/ForBiggerBlazes.mp4_1080p.mp4':
  Metadata:
    major_brand     : mp42
    minor_version   : 0
    compatible_brands: isommp42
    encoder         : Lavf62.3.100
  Stream #0:0(und): Video: h264 (avc1 / 0x31637661), yuv420p(tv, progressive), 1920x1080, q=2-31, 23.98 fps, 24k tbn (default)
    Metadata:
      encoder         : Lavc62.11.100 libx264
      handler_name    : VideoHandler
      vendor_id       : [0][0][0][0]
    Side data:
      cpb: bitrate max/min/avg: 0/0/0 buffer size: 0 vbv_delay: N/A
  Stream #0:1(und): Audio: aac (LC) (mp4a / 0x6134706D), 44100 Hz, stereo, fltp, 128 kb/s (default)
    Metadata:
      encoder         : Lavc62.11.100 aac
      creation_time   : 2013-11-21T04:34:29.000000Z
      handler_name    : IsoMedia File Produced by Google, 5-11-2011
      vendor_id       : [0][0][0][0]
frame=    0 fps=0.0 q=0.0 size=       0KiB time=N/A bitrate=N/A speed=N/A elapsed=0:00:00.52    frame=    0 fps=0.0 q=0.0 size=       0KiB time=N/A bitrate=N/A speed=N/A elapsed=0:00:01.02    frame=    0 fps=0.0 q=0.0 size=       0KiB time=N/A bitrate=N/A speed=N/A elapsed=0:00:01.53    frame=    0 fps=0.0 q=0.0 size=       0KiB time=N/A bitrate=N/A speed=N/A elapsed=0:00:02.04    frame=    6 fps=2.4 q=33.0 size=       0KiB time=00:00:00.16 bitrate=   2.3kbits/s speed=0.0654x elapsed=0:00:02.55    frame=   10 fps=3.3 q=33.0 size=       0KiB time=00:00:00.33 bitrate=   1.2kbits/s speed=0.109x elapsed=0:00:03.05    frame=   16 fps=4.5 q=33.0 size=       0KiB time=00:00:00.58 bitrate=   0.7kbits/s speed=0.164x elapsed=0:00:03.55    frame=   20 fps=4.9 q=33.0 size=       0KiB time=00:00:00.75 bitrate=   0.5kbits/s speed=0.185x elapsed=0:00:04.05    frame=   26 fps=5.7 q=33.0 size=       0KiB time=00:00:01.00 bitrate=   0.4kbits/s speed=0.22x elapsed=0:00:04.55    frame=   31 fps=6.1 q=33.0 size=       0KiB time=00:00:01.20 bitrate=   0.3kbits/s speed=0.239x elapsed=0:00:05.05    frame=   39 fps=7.0 q=33.0 size=       0KiB time=00:00:01.54 bitrate=   0.2kbits/s speed=0.278x elapsed=0:00:05.55    frame=   46 fps=7.6 q=33.0 size=       0KiB time=00:00:01.83 bitrate=   0.2kbits/s speed=0.303x elapsed=0:00:06.05    frame=   50 fps=7.6 q=33.0 size=       0KiB time=00:00:02.00 bitrate=   0.2kbits/s speed=0.305x elapsed=0:00:06.56    frame=   55 fps=7.8 q=33.0 size=       0KiB time=00:00:02.21 bitrate=   0.2kbits/s speed=0.313x elapsed=0:00:07.06    frame=   58 fps=7.7 q=33.0 size=       0KiB time=00:00:02.33 bitrate=   0.2kbits/s speed=0.309x elapsed=0:00:07.56    frame=   64 fps=7.9 q=33.0 size=     256KiB time=00:00:02.58 bitrate= 811.1kbits/s speed=0.32x elapsed=0:00:08.07    frame=   68 fps=7.9 q=33.0 size=     256KiB time=00:00:02.75 bitrate= 762.0kbits/s speed=0.321x elapsed=0:00:08.57    frame=   70 fps=7.7 q=33.0 size=     256KiB time=00:00:02.83 bitrate= 739.6kbits/s speed=0.313x elapsed=0:00:09.07    frame=   71 fps=7.4 q=33.0 size=     256KiB time=00:00:02.87 bitrate= 728.8kbits/s speed=0.301x elapsed=0:00:09.57    frame=   76 fps=7.5 q=33.0 size=     256KiB time=00:00:03.08 bitrate= 679.6kbits/s speed=0.306x elapsed=0:00:10.08    frame=   78 fps=7.4 q=33.0 size=     256KiB time=00:00:03.16 bitrate= 661.7kbits/s speed= 0.3x elapsed=0:00:10.58    frame=   82 fps=7.4 q=33.0 size=     256KiB time=00:00:03.33 bitrate= 628.6kbits/s speed=0.301x elapsed=0:00:11.10    frame=   83 fps=7.2 q=33.0 size=     256KiB time=00:00:03.37 bitrate= 620.9kbits/s speed=0.291x elapsed=0:00:11.60    frame=   88 fps=7.3 q=33.0 size=     256KiB time=00:00:03.58 bitrate= 584.8kbits/s speed=0.296x elapsed=0:00:12.10    frame=   91 fps=7.2 q=33.0 size=     256KiB time=00:00:03.71 bitrate= 565.1kbits/s speed=0.294x elapsed=0:00:12.60    frame=   97 fps=7.4 q=33.0 size=     512KiB time=00:00:03.96 bitrate=1058.7kbits/s speed=0.302x elapsed=0:00:13.10    frame=  100 fps=7.3 q=33.0 size=     512KiB time=00:00:04.08 bitrate=1026.2kbits/s speed= 0.3x elapsed=0:00:13.61    frame=  102 fps=7.2 q=33.0 size=     512KiB time=00:00:04.17 bitrate=1005.7kbits/s speed=0.295x elapsed=0:00:14.11    frame=  105 fps=7.2 q=33.0 size=     512KiB time=00:00:04.29 bitrate= 976.4kbits/s speed=0.294x elapsed=0:00:14.61    frame=  108 fps=7.1 q=33.0 size=     768KiB time=00:00:04.42 bitrate=1423.1kbits/s speed=0.292x elapsed=0:00:15.11    frame=  112 fps=7.2 q=33.0 size=     768KiB time=00:00:04.58 bitrate=1371.4kbits/s speed=0.294x elapsed=0:00:15.62    frame=  115 fps=7.1 q=33.0 size=     768KiB time=00:00:04.71 bitrate=1335.0kbits/s speed=0.292x elapsed=0:00:16.12    frame=  119 fps=7.2 q=33.0 size=     768KiB time=00:00:04.87 bitrate=1289.3kbits/s speed=0.294x elapsed=0:00:16.62    frame=  124 fps=7.2 q=33.0 size=    1024KiB time=00:00:05.08 bitrate=1648.6kbits/s speed=0.297x elapsed=0:00:17.14    frame=  128 fps=7.3 q=33.0 size=    1024KiB time=00:00:05.25 bitrate=1596.3kbits/s speed=0.298x elapsed=0:00:17.65    frame=  132 fps=7.3 q=30.0 size=    1024KiB time=00:00:05.42 bitrate=1547.2kbits/s speed=0.299x elapsed=0:00:18.15    frame=  139 fps=7.5 q=33.0 size=    1280KiB time=00:00:05.71 bitrate=1835.2kbits/s speed=0.306x elapsed=0:00:18.65    frame=  143 fps=7.5 q=33.0 size=    1280KiB time=00:00:05.88 bitrate=1783.1kbits/s speed=0.307x elapsed=0:00:19.16    frame=  145 fps=7.4 q=33.0 size=    1280KiB time=00:00:05.96 bitrate=1758.2kbits/s speed=0.303x elapsed=0:00:19.66    frame=  148 fps=7.3 q=33.0 size=    1280KiB time=00:00:06.08 bitrate=1722.0kbits/s speed=0.302x elapsed=0:00:20.16    frame=  151 fps=7.3 q=33.0 size=    1536KiB time=00:00:06.21 bitrate=2024.8kbits/s speed=0.301x elapsed=0:00:20.66    frame=  157 fps=7.4 q=33.0 size=    1536KiB time=00:00:06.46 bitrate=1946.4kbits/s speed=0.305x elapsed=0:00:21.16    frame=  161 fps=7.4 q=33.0 size=    1536KiB time=00:00:06.63 bitrate=1897.5kbits/s speed=0.306x elapsed=0:00:21.68    frame=  165 fps=7.4 q=33.0 size=    1536KiB time=00:00:06.79 bitrate=1850.9kbits/s speed=0.306x elapsed=0:00:22.18    frame=  168 fps=7.4 q=33.0 size=    1536KiB time=00:00:06.92 bitrate=1817.5kbits/s speed=0.305x elapsed=0:00:22.68    frame=  172 fps=7.4 q=33.0 size=    1792KiB time=00:00:07.09 bitrate=2070.5kbits/s speed=0.306x elapsed=0:00:23.20    frame=  179 fps=7.6 q=33.0 size=    1792KiB time=00:00:07.38 bitrate=1988.6kbits/s speed=0.311x elapsed=0:00:23.70    frame=  181 fps=7.5 q=33.0 size=    1792KiB time=00:00:07.46 bitrate=1966.4kbits/s speed=0.308x elapsed=0:00:24.20    frame=  188 fps=7.6 q=33.0 size=    1792KiB time=00:00:07.75 bitrate=1892.4kbits/s speed=0.314x elapsed=0:00:24.70    frame=  192 fps=7.6 q=33.0 size=    1792KiB time=00:00:07.92 bitrate=1852.5kbits/s speed=0.314x elapsed=0:00:25.20    frame=  196 fps=7.6 q=33.0 size=    2048KiB time=00:00:08.09 bitrate=2073.5kbits/s speed=0.315x elapsed=0:00:25.70    frame=  198 fps=7.6 q=33.0 size=    2048KiB time=00:00:08.17 bitrate=2052.3kbits/s speed=0.312x elapsed=0:00:26.20    frame=  203 fps=7.6 q=33.0 size=    2048KiB time=00:00:08.38 bitrate=2001.3kbits/s speed=0.314x elapsed=0:00:26.71    frame=  209 fps=7.7 q=33.0 size=    2048KiB time=00:00:08.63 bitrate=1943.3kbits/s speed=0.317x elapsed=0:00:27.21    frame=  213 fps=7.7 q=33.0 size=    2048KiB time=00:00:08.80 bitrate=1906.4kbits/s speed=0.317x elapsed=0:00:27.75    frame=  215 fps=7.6 q=33.0 size=    2048KiB time=00:00:08.88 bitrate=1888.5kbits/s speed=0.314x elapsed=0:00:28.25    frame=  217 fps=7.5 q=33.0 size=    2048KiB time=00:00:08.96 bitrate=1871.0kbits/s speed=0.312x elapsed=0:00:28.75    frame=  221 fps=7.6 q=30.0 size=    2048KiB time=00:00:09.13 bitrate=1836.8kbits/s speed=0.312x elapsed=0:00:29.25    frame=  231 fps=7.8 q=33.0 size=    2048KiB time=00:00:09.55 bitrate=1756.6kbits/s speed=0.321x elapsed=0:00:29.76    frame=  238 fps=7.9 q=33.0 size=    2048KiB time=00:00:09.84 bitrate=1704.5kbits/s speed=0.325x elapsed=0:00:30.26    frame=  246 fps=8.0 q=33.0 size=    2048KiB time=00:00:10.17 bitrate=1648.6kbits/s speed=0.331x elapsed=0:00:30.76    frame=  256 fps=8.2 q=33.0 size=    2048KiB time=00:00:10.59 bitrate=1583.7kbits/s speed=0.339x elapsed=0:00:31.26    frame=  267 fps=8.4 q=33.0 size=    2048KiB time=00:00:11.05 bitrate=1518.0kbits/s speed=0.348x elapsed=0:00:31.76    frame=  275 fps=8.5 q=33.0 size=    2304KiB time=00:00:11.38 bitrate=1657.7kbits/s speed=0.353x elapsed=0:00:32.27    frame=  285 fps=8.7 q=33.0 size=    2304KiB time=00:00:11.80 bitrate=1599.1kbits/s speed=0.36x elapsed=0:00:32.77    frame=  294 fps=8.8 q=33.0 size=    2304KiB time=00:00:12.17 bitrate=1549.8kbits/s speed=0.366x elapsed=0:00:33.27    frame=  304 fps=9.0 q=33.0 size=    2304KiB time=00:00:12.59 bitrate=1498.5kbits/s speed=0.373x elapsed=0:00:33.77    frame=  310 fps=9.0 q=33.0 size=    2304KiB time=00:00:12.84 bitrate=1469.3kbits/s speed=0.375x elapsed=0:00:34.28    frame=  319 fps=9.2 q=33.0 size=    2304KiB time=00:00:13.22 bitrate=1427.6kbits/s speed=0.38x elapsed=0:00:34.78    frame=  326 fps=9.2 q=33.0 size=    2304KiB time=N/A bitrate=N/A speed=N/A elapsed=0:00:35.29    frame=  334 fps=9.3 q=33.0 size=    2304KiB time=N/A bitrate=N/A speed=N/A elapsed=0:00:35.79    frame=  341 fps=9.4 q=33.0 size=    2304KiB time=N/A bitrate=N/A speed=N/A elapsed=0:00:36.29    frame=  355 fps=9.6 q=33.0 size=    2304KiB time=N/A bitrate=N/A speed=N/A elapsed=0:00:36.79    [out#0/mp4 @ 0x555e7de84e80] video:2152KiB audio:239KiB subtitle:0KiB other streams:0KiB global headers:0KiB muxing overhead: 0.503476%
frame=  360 fps=9.7 q=-1.0 Lsize=    2403KiB time=00:00:14.93 bitrate=1318.2kbits/s speed=0.402x elapsed=0:00:37.11    
[libx264 @ 0x555e7dedf080] frame I:6     Avg QP:21.00  size: 25206
[libx264 @ 0x555e7dedf080] frame P:160   Avg QP:23.04  size:  9726
[libx264 @ 0x555e7dedf080] frame B:194   Avg QP:23.72  size:  2554
[libx264 @ 0x555e7dedf080] consecutive B-frames: 25.8%  5.0%  5.8% 63.3%
[libx264 @ 0x555e7dedf080] mb I  I16..4: 50.4% 46.1%  3.5%
[libx264 @ 0x555e7dedf080] mb P  I16..4: 17.0% 18.5%  0.2%  P16..4:  7.2%  1.2%  0.1%  0.0%  0.0%    skip:55.8%
[libx264 @ 0x555e7dedf080] mb B  I16..4:  1.7%  2.2%  0.0%  B16..8:  5.4%  0.5%  0.0%  direct: 2.5%  skip:87.7%  L0:50.2% L1:47.2% BI: 2.6%
[libx264 @ 0x555e7dedf080] 8x8 transform intra:51.6% inter:77.6%
[libx264 @ 0x555e7dedf080] coded y,uvDC,uvAC intra: 19.1% 33.7% 3.6% inter: 1.3% 3.7% 0.1%
[libx264 @ 0x555e7dedf080] i16 v,h,dc,p: 54% 25%  9% 12%
[libx264 @ 0x555e7dedf080] i8 v,h,dc,ddl,ddr,vr,hd,vl,hu: 26% 30% 25%  4%  3%  3%  3%  3%  3%
[libx264 @ 0x555e7dedf080] i4 v,h,dc,ddl,ddr,vr,hd,vl,hu: 27% 24% 13%  4%  8%  7%  8%  5%  4%
[libx264 @ 0x555e7dedf080] i8c dc,h,v,p: 56% 21% 19%  4%
[libx264 @ 0x555e7dedf080] Weighted P-Frames: Y:11.9% UV:4.4%
[libx264 @ 0x555e7dedf080] ref P L0: 83.1% 16.9%
[libx264 @ 0x555e7dedf080] ref B L0: 87.0% 13.0%
[libx264 @ 0x555e7dedf080] ref B L1: 96.6%  3.4%
[libx264 @ 0x555e7dedf080] kb/s:1173.72
[aac @ 0x555e7dfb3980] Qavg: 1108.607
Transcoding /tmp/tmpnh5whpo9/ForBiggerBlazes.mp4 to 1440p -> /tmp/tmpnh5whpo9/ForBiggerBlazes.mp4_1440p.mp4
ffmpeg version 8.0.1-3 Copyright (c) 2000-2025 the FFmpeg developers
  built with gcc 15 (Debian 15.2.0-12)
  configuration: --prefix=/usr --extra-version=3 --toolchain=hardened --libdir=/usr/lib/x86_64-linux-gnu --incdir=/usr/include/x86_64-linux-gnu --arch=amd64 --enable-gpl --disable-stripping --disable-pocketsphinx --disable-libcaca --disable-libmfx --disable-omx --enable-gnutls --enable-libaom --enable-libass --enable-libbs2b --enable-libcdio --enable-libcodec2 --enable-libdav1d --enable-libflite --enable-libfontconfig --enable-libfreetype --enable-libfribidi --enable-libglslang --enable-libgme --enable-libgsm --enable-libharfbuzz --enable-libmp3lame --enable-libmysofa --enable-libopenjpeg --enable-libopenmpt --enable-libopus --enable-librubberband --enable-libshine --enable-libsnappy --enable-libsoxr --enable-libspeex --enable-libtheora --enable-libtwolame --enable-libvidstab --enable-libvorbis --enable-libvpx --enable-libwebp --enable-libx265 --enable-libxml2 --enable-libxvid --enable-libzimg --enable-openal --enable-opencl --enable-opengl --disable-sndio --enable-libvpl --enable-libdc1394 --enable-libdrm --enable-libiec61883 --enable-chromaprint --enable-frei0r --enable-ladspa --enable-libbluray --enable-libdvdnav --enable-libdvdread --enable-libjack --enable-libjxl --enable-libpulse --enable-librabbitmq --enable-librist --enable-libsrt --enable-libssh --enable-libsvtav1 --enable-libx264 --enable-libzmq --enable-libzvbi --enable-lv2 --enable-sdl2 --enable-libplacebo --enable-librav1e --enable-librsvg --enable-shared
  libavutil      60.  8.100 / 60.  8.100
  libavcodec     62. 11.100 / 62. 11.100
  libavformat    62.  3.100 / 62.  3.100
  libavdevice    62.  1.100 / 62.  1.100
  libavfilter    11.  4.100 / 11.  4.100
  libswscale      9.  1.100 /  9.  1.100
  libswresample   6.  1.100 /  6.  1.100
Input #0, mov,mp4,m4a,3gp,3g2,mj2, from '/tmp/tmpnh5whpo9/ForBiggerBlazes.mp4':
  Metadata:
    major_brand     : mp42
    minor_version   : 0
    compatible_brands: isommp42
    creation_time   : 2013-11-21T04:34:28.000000Z
  Duration: 00:00:15.02, start: 0.000000, bitrate: 1330 kb/s
  Stream #0:0[0x1](und): Video: h264 (High) (avc1 / 0x31637661), yuv420p(progressive), 1280x720, 1135 kb/s, 23.98 fps, 23.98 tbr, 48k tbn (default)
    Metadata:
      handler_name    : VideoHandler
      vendor_id       : [0][0][0][0]
  Stream #0:1[0x2](und): Audio: aac (LC) (mp4a / 0x6134706D), 44100 Hz, stereo, fltp, 192 kb/s (default)
    Metadata:
      creation_time   : 2013-11-21T04:34:29.000000Z
      handler_name    : IsoMedia File Produced by Google, 5-11-2011
      vendor_id       : [0][0][0][0]
Stream mapping:
  Stream #0:0 -> #0:0 (h264 (native) -> h264 (libx264))
  Stream #0:1 -> #0:1 (aac (native) -> aac (native))
Press [q] to stop, [?] for help
[libx264 @ 0x55af45b2c080] using cpu capabilities: MMX2 SSE2Fast SSSE3 SSE4.2 AVX FMA3 BMI2 AVX2
[libx264 @ 0x55af45b2c080] profile High, level 5.0, 4:2:0, 8-bit
[libx264 @ 0x55af45b2c080] 264 - core 165 - H.264/MPEG-4 AVC codec - Copyleft 2003-2025 - http://www.videolan.org/x264.html - options: cabac=1 ref=2 deblock=1:0:0 analyse=0x3:0x113 me=hex subme=4 psy=1 psy_rd=1.00:0.00 mixed_ref=0 me_range=16 chroma_me=1 trellis=1 8x8dct=1 cqm=0 deadzone=21,11 fast_pskip=1 chroma_qp_offset=0 threads=6 lookahead_threads=1 sliced_threads=0 nr=0 decimate=1 interlaced=0 bluray_compat=0 constrained_intra=0 bframes=3 b_pyramid=2 b_adapt=1 b_bias=0 direct=1 weightb=1 open_gop=0 weightp=1 keyint=250 keyint_min=23 scenecut=40 intra_refresh=0 rc_lookahead=20 rc=crf mbtree=1 crf=28.0 qcomp=0.60 qpmin=0 qpmax=69 qpstep=4 ip_ratio=1.40 aq=1:1.00
Output #0, mp4, to '/tmp/tmpnh5whpo9/ForBiggerBlazes.mp4_1440p.mp4':
  Metadata:
    major_brand     : mp42
    minor_version   : 0
    compatible_brands: isommp42
    encoder         : Lavf62.3.100
  Stream #0:0(und): Video: h264 (avc1 / 0x31637661), yuv420p(tv, progressive), 2560x1440, q=2-31, 23.98 fps, 24k tbn (default)
    Metadata:
      encoder         : Lavc62.11.100 libx264
      handler_name    : VideoHandler
      vendor_id       : [0][0][0][0]
    Side data:
      cpb: bitrate max/min/avg: 0/0/0 buffer size: 0 vbv_delay: N/A
  Stream #0:1(und): Audio: aac (LC) (mp4a / 0x6134706D), 44100 Hz, stereo, fltp, 128 kb/s (default)
    Metadata:
      encoder         : Lavc62.11.100 aac
      creation_time   : 2013-11-21T04:34:29.000000Z
      handler_name    : IsoMedia File Produced by Google, 5-11-2011
      vendor_id       : [0][0][0][0]
frame=    0 fps=0.0 q=0.0 size=       0KiB time=N/A bitrate=N/A speed=N/A elapsed=0:00:00.50    frame=    0 fps=0.0 q=0.0 size=       0KiB time=N/A bitrate=N/A speed=N/A elapsed=0:00:01.00    frame=    0 fps=0.0 q=0.0 size=       0KiB time=N/A bitrate=N/A speed=N/A elapsed=0:00:01.50    frame=    0 fps=0.0 q=0.0 size=       0KiB time=N/A bitrate=N/A speed=N/A elapsed=0:00:02.00    frame=    0 fps=0.0 q=0.0 size=       0KiB time=N/A bitrate=N/A speed=N/A elapsed=0:00:02.50    frame=    0 fps=0.0 q=0.0 size=       0KiB time=N/A bitrate=N/A speed=N/A elapsed=0:00:03.00    frame=    0 fps=0.0 q=0.0 size=       0KiB time=N/A bitrate=N/A speed=N/A elapsed=0:00:03.50    frame=    2 fps=0.5 q=33.0 size=       0KiB time=00:00:00.00 bitrate=N/A speed=   0x elapsed=0:00:04.02    frame=    3 fps=0.7 q=33.0 size=       0KiB time=00:00:00.04 bitrate=   9.2kbits/s speed=0.00922x elapsed=0:00:04.52    frame=    8 fps=1.6 q=33.0 size=       0KiB time=00:00:00.25 bitrate=   1.5kbits/s speed=0.0498x elapsed=0:00:05.02    frame=   11 fps=2.0 q=33.0 size=       0KiB time=00:00:00.37 bitrate=   1.0kbits/s speed=0.0679x elapsed=0:00:05.53    frame=   19 fps=3.2 q=33.0 size=       0KiB time=00:00:00.70 bitrate=   0.5kbits/s speed=0.118x elapsed=0:00:06.03    frame=   24 fps=3.7 q=33.0 size=       0KiB time=00:00:00.91 bitrate=   0.4kbits/s speed=0.14x elapsed=0:00:06.53    frame=   29 fps=4.1 q=33.0 size=     256KiB time=00:00:01.12 bitrate=1862.6kbits/s speed=0.16x elapsed=0:00:07.03    frame=   31 fps=4.1 q=33.0 size=     256KiB time=00:00:01.20 bitrate=1734.2kbits/s speed=0.16x elapsed=0:00:07.54    frame=   36 fps=4.5 q=33.0 size=     256KiB time=00:00:01.41 bitrate=1479.1kbits/s speed=0.176x elapsed=0:00:08.04    frame=   38 fps=4.4 q=33.0 size=     256KiB time=00:00:01.50 bitrate=1397.0kbits/s speed=0.176x elapsed=0:00:08.55    frame=   41 fps=4.5 q=33.0 size=     256KiB time=00:00:01.62 bitrate=1289.5kbits/s speed=0.18x elapsed=0:00:09.05    frame=   43 fps=4.5 q=33.0 size=     256KiB time=00:00:01.71 bitrate=1226.6kbits/s speed=0.179x elapsed=0:00:09.55    frame=   47 fps=4.7 q=33.0 size=     256KiB time=00:00:01.87 bitrate=1117.6kbits/s speed=0.186x elapsed=0:00:10.07    frame=   49 fps=4.6 q=33.0 size=     256KiB time=00:00:01.96 bitrate=1070.0kbits/s speed=0.185x elapsed=0:00:10.57    frame=   52 fps=4.7 q=33.0 size=     256KiB time=00:00:02.08 bitrate=1005.8kbits/s speed=0.188x elapsed=0:00:11.07    frame=   56 fps=4.8 q=33.0 size=     256KiB time=00:00:02.25 bitrate= 931.3kbits/s speed=0.195x elapsed=0:00:11.57    frame=   57 fps=4.7 q=33.0 size=     256KiB time=00:00:02.29 bitrate= 914.4kbits/s speed=0.19x elapsed=0:00:12.07    frame=   61 fps=4.8 q=33.0 size=     256KiB time=00:00:02.46 bitrate= 852.4kbits/s speed=0.196x elapsed=0:00:12.58    frame=   64 fps=4.9 q=33.0 size=     256KiB time=00:00:02.58 bitrate= 811.1kbits/s speed=0.198x elapsed=0:00:13.08    frame=   67 fps=4.9 q=33.0 size=     256KiB time=00:00:02.71 bitrate= 773.7kbits/s speed= 0.2x elapsed=0:00:13.58    frame=   70 fps=5.0 q=33.0 size=     256KiB time=00:00:02.83 bitrate= 739.6kbits/s speed=0.201x elapsed=0:00:14.08    frame=   71 fps=4.9 q=33.0 size=     512KiB time=00:00:02.87 bitrate=1457.6kbits/s speed=0.197x elapsed=0:00:14.58    frame=   72 fps=4.8 q=33.0 size=     512KiB time=00:00:02.91 bitrate=1436.7kbits/s speed=0.193x elapsed=0:00:15.09    frame=   74 fps=4.7 q=33.0 size=     512KiB time=00:00:03.00 bitrate=1396.8kbits/s speed=0.193x elapsed=0:00:15.59    frame=   77 fps=4.8 q=33.0 size=     512KiB time=00:00:03.12 bitrate=1341.0kbits/s speed=0.194x elapsed=0:00:16.09    frame=   79 fps=4.8 q=33.0 size=     512KiB time=00:00:03.21 bitrate=1306.1kbits/s speed=0.194x elapsed=0:00:16.59    frame=   81 fps=4.7 q=33.0 size=     512KiB time=00:00:03.29 bitrate=1273.1kbits/s speed=0.193x elapsed=0:00:17.09    frame=   82 fps=4.7 q=33.0 size=     512KiB time=00:00:03.33 bitrate=1257.1kbits/s speed=0.19x elapsed=0:00:17.59    frame=   88 fps=4.9 q=33.0 size=     768KiB time=00:00:03.58 bitrate=1754.1kbits/s speed=0.198x elapsed=0:00:18.09    frame=   90 fps=4.8 q=33.0 size=     768KiB time=00:00:03.67 bitrate=1714.2kbits/s speed=0.197x elapsed=0:00:18.59    frame=   92 fps=4.8 q=33.0 size=     768KiB time=00:00:03.75 bitrate=1676.1kbits/s speed=0.197x elapsed=0:00:19.09    frame=   95 fps=4.8 q=30.0 size=     768KiB time=00:00:03.87 bitrate=1622.1kbits/s speed=0.198x elapsed=0:00:19.59    frame=   96 fps=4.8 q=33.0 size=     768KiB time=00:00:03.92 bitrate=1604.8kbits/s speed=0.195x elapsed=0:00:20.09    frame=   98 fps=4.8 q=33.0 size=    1024KiB time=00:00:04.00 bitrate=2095.2kbits/s speed=0.194x elapsed=0:00:20.60    frame=  101 fps=4.8 q=33.0 size=    1024KiB time=00:00:04.12 bitrate=2031.7kbits/s speed=0.196x elapsed=0:00:21.10    frame=  104 fps=4.8 q=33.0 size=    1024KiB time=00:00:04.25 bitrate=1971.9kbits/s speed=0.197x elapsed=0:00:21.60    frame=  106 fps=4.8 q=33.0 size=    1024KiB time=00:00:04.33 bitrate=1934.0kbits/s speed=0.196x elapsed=0:00:22.10    frame=  107 fps=4.7 q=33.0 size=    1024KiB time=00:00:04.37 bitrate=1915.6kbits/s speed=0.194x elapsed=0:00:22.60    frame=  108 fps=4.7 q=33.0 size=    1024KiB time=00:00:04.42 bitrate=1897.5kbits/s speed=0.191x elapsed=0:00:23.10    frame=  112 fps=4.7 q=33.0 size=    1280KiB time=00:00:04.58 bitrate=2285.6kbits/s speed=0.194x elapsed=0:00:23.61    frame=  113 fps=4.7 q=33.0 size=    1280KiB time=00:00:04.62 bitrate=2265.0kbits/s speed=0.192x elapsed=0:00:24.12    frame=  115 fps=4.7 q=33.0 size=    1280KiB time=00:00:04.71 bitrate=2224.9kbits/s speed=0.191x elapsed=0:00:24.64    frame=  117 fps=4.7 q=33.0 size=    1280KiB time=00:00:04.79 bitrate=2186.2kbits/s speed=0.191x elapsed=0:00:25.14    frame=  121 fps=4.7 q=33.0 size=    1536KiB time=00:00:04.96 bitrate=2535.3kbits/s speed=0.194x elapsed=0:00:25.64    frame=  123 fps=4.7 q=33.0 size=    1536KiB time=00:00:05.04 bitrate=2493.4kbits/s speed=0.193x elapsed=0:00:26.16    frame=  124 fps=4.6 q=33.0 size=    1536KiB time=00:00:05.08 bitrate=2472.9kbits/s speed=0.191x elapsed=0:00:26.66    frame=  125 fps=4.6 q=33.0 size=    1536KiB time=00:00:05.13 bitrate=2452.8kbits/s speed=0.189x elapsed=0:00:27.17    frame=  125 fps=4.5 q=33.0 size=    1536KiB time=00:00:05.13 bitrate=2452.8kbits/s speed=0.185x elapsed=0:00:27.67    frame=  127 fps=4.5 q=33.0 size=    1536KiB time=00:00:05.21 bitrate=2413.6kbits/s speed=0.185x elapsed=0:00:28.17    frame=  129 fps=4.5 q=33.0 size=    1792KiB time=00:00:05.29 bitrate=2771.5kbits/s speed=0.185x elapsed=0:00:28.68    frame=  131 fps=4.5 q=33.0 size=    1792KiB time=00:00:05.38 bitrate=2728.5kbits/s speed=0.184x elapsed=0:00:29.18    frame=  134 fps=4.5 q=33.0 size=    1792KiB time=00:00:05.50 bitrate=2666.5kbits/s speed=0.185x elapsed=0:00:29.68    frame=  138 fps=4.6 q=33.0 size=    2048KiB time=00:00:05.67 bitrate=2957.8kbits/s speed=0.188x elapsed=0:00:30.18    frame=  138 fps=4.5 q=33.0 size=    2048KiB time=00:00:05.67 bitrate=2957.8kbits/s speed=0.185x elapsed=0:00:30.68    frame=  140 fps=4.5 q=33.0 size=    2048KiB time=00:00:05.75 bitrate=2914.9kbits/s speed=0.185x elapsed=0:00:31.18    frame=  142 fps=4.5 q=33.0 size=    2048KiB time=00:00:05.83 bitrate=2873.3kbits/s speed=0.184x elapsed=0:00:31.68    frame=  144 fps=4.5 q=33.0 size=    2048KiB time=00:00:05.92 bitrate=2832.8kbits/s speed=0.184x elapsed=0:00:32.19    frame=  148 fps=4.5 q=33.0 size=    2304KiB time=00:00:06.08 bitrate=3099.6kbits/s speed=0.186x elapsed=0:00:32.69    frame=  150 fps=4.5 q=33.0 size=    2304KiB time=00:00:06.17 bitrate=3057.7kbits/s speed=0.186x elapsed=0:00:33.19    frame=  151 fps=4.5 q=33.0 size=    2304KiB time=00:00:06.21 bitrate=3037.2kbits/s speed=0.184x elapsed=0:00:33.70    frame=  152 fps=4.4 q=33.0 size=    2304KiB time=00:00:06.25 bitrate=3016.9kbits/s speed=0.183x elapsed=0:00:34.20    frame=  153 fps=4.4 q=33.0 size=    2304KiB time=00:00:06.29 bitrate=2997.0kbits/s speed=0.181x elapsed=0:00:34.70    frame=  154 fps=4.4 q=33.0 size=    2304KiB time=00:00:06.33 bitrate=2977.2kbits/s speed=0.18x elapsed=0:00:35.20    frame=  157 fps=4.4 q=33.0 size=    2304KiB time=00:00:06.46 bitrate=2919.6kbits/s speed=0.181x elapsed=0:00:35.70    frame=  158 fps=4.4 q=33.0 size=    2304KiB time=00:00:06.50 bitrate=2900.9kbits/s speed=0.18x elapsed=0:00:36.20    frame=  159 fps=4.3 q=33.0 size=    2560KiB time=00:00:06.54 bitrate=3202.7kbits/s speed=0.178x elapsed=0:00:36.70    frame=  160 fps=4.3 q=33.0 size=    2560KiB time=00:00:06.58 bitrate=3182.4kbits/s speed=0.177x elapsed=0:00:37.20    frame=  164 fps=4.3 q=33.0 size=    2560KiB time=00:00:06.75 bitrate=3103.8kbits/s speed=0.179x elapsed=0:00:37.71    frame=  166 fps=4.3 q=33.0 size=    2560KiB time=00:00:06.84 bitrate=3066.0kbits/s speed=0.179x elapsed=0:00:38.21    frame=  168 fps=4.3 q=33.0 size=    2560KiB time=00:00:06.92 bitrate=3029.1kbits/s speed=0.179x elapsed=0:00:38.71    frame=  171 fps=4.4 q=33.0 size=    2816KiB time=00:00:07.04 bitrate=3272.8kbits/s speed=0.18x elapsed=0:00:39.21    frame=  175 fps=4.4 q=33.0 size=    2816KiB time=00:00:07.21 bitrate=3197.1kbits/s speed=0.182x elapsed=0:00:39.71    frame=  178 fps=4.4 q=33.0 size=    2816KiB time=00:00:07.34 bitrate=3142.6kbits/s speed=0.183x elapsed=0:00:40.21    frame=  180 fps=4.4 q=33.0 size=    2816KiB time=00:00:07.42 bitrate=3107.3kbits/s speed=0.182x elapsed=0:00:40.71    frame=  181 fps=4.4 q=33.0 size=    2816KiB time=00:00:07.46 bitrate=3090.0kbits/s speed=0.181x elapsed=0:00:41.21    frame=  184 fps=4.4 q=33.0 size=    2816KiB time=00:00:07.59 bitrate=3039.0kbits/s speed=0.182x elapsed=0:00:41.72    frame=  187 fps=4.4 q=33.0 size=    3072KiB time=00:00:07.71 bitrate=3261.5kbits/s speed=0.183x elapsed=0:00:42.22    frame=  190 fps=4.4 q=33.0 size=    3072KiB time=00:00:07.84 bitrate=3209.5kbits/s speed=0.184x elapsed=0:00:42.72    frame=  192 fps=4.4 q=33.0 size=    3072KiB time=00:00:07.92 bitrate=3175.7kbits/s speed=0.183x elapsed=0:00:43.22    frame=  196 fps=4.5 q=33.0 size=    3072KiB time=00:00:08.09 bitrate=3110.2kbits/s speed=0.185x elapsed=0:00:43.72    frame=  198 fps=4.5 q=33.0 size=    3072KiB time=00:00:08.17 bitrate=3078.5kbits/s speed=0.185x elapsed=0:00:44.22    frame=  201 fps=4.5 q=33.0 size=    3328KiB time=00:00:08.29 bitrate=3284.8kbits/s speed=0.186x elapsed=0:00:44.72    frame=  203 fps=4.5 q=33.0 size=    3328KiB time=00:00:08.38 bitrate=3252.1kbits/s speed=0.185x elapsed=0:00:45.25    frame=  204 fps=4.5 q=33.0 size=    3328KiB time=00:00:08.42 bitrate=3236.0kbits/s speed=0.184x elapsed=0:00:45.75    frame=  205 fps=4.4 q=33.0 size=    3328KiB time=00:00:08.46 bitrate=3220.0kbits/s speed=0.183x elapsed=0:00:46.25    frame=  211 fps=4.5 q=33.0 size=    3328KiB time=00:00:08.71 bitrate=3127.6kbits/s speed=0.186x elapsed=0:00:46.76    frame=  214 fps=4.5 q=33.0 size=    3328KiB time=00:00:08.84 bitrate=3083.3kbits/s speed=0.187x elapsed=0:00:47.26    frame=  215 fps=4.5 q=33.0 size=    3328KiB time=00:00:08.88 bitrate=3068.9kbits/s speed=0.186x elapsed=0:00:47.76    frame=  218 fps=4.5 q=33.0 size=    3328KiB time=00:00:09.00 bitrate=3026.2kbits/s speed=0.187x elapsed=0:00:48.27    frame=  219 fps=4.5 q=30.0 size=    3328KiB time=00:00:09.05 bitrate=3012.3kbits/s speed=0.186x elapsed=0:00:48.77    frame=  224 fps=4.5 q=33.0 size=    3328KiB time=00:00:09.25 bitrate=2944.4kbits/s speed=0.188x elapsed=0:00:49.27    frame=  227 fps=4.6 q=33.0 size=    3328KiB time=00:00:09.38 bitrate=2905.2kbits/s speed=0.189x elapsed=0:00:49.77    frame=  234 fps=4.7 q=33.0 size=    3328KiB time=00:00:09.67 bitrate=2817.5kbits/s speed=0.192x elapsed=0:00:50.27    frame=  239 fps=4.7 q=33.0 size=    3584KiB time=00:00:09.88 bitrate=2970.2kbits/s speed=0.195x elapsed=0:00:50.78    frame=  242 fps=4.7 q=33.0 size=    3584KiB time=00:00:10.01 bitrate=2933.1kbits/s speed=0.195x elapsed=0:00:51.28    frame=  243 fps=4.7 q=33.0 size=    3584KiB time=00:00:10.05 bitrate=2920.9kbits/s speed=0.194x elapsed=0:00:51.79    frame=  249 fps=4.8 q=33.0 size=    3584KiB time=00:00:10.30 bitrate=2850.0kbits/s speed=0.197x elapsed=0:00:52.29    frame=  252 fps=4.8 q=33.0 size=    3584KiB time=00:00:10.42 bitrate=2815.8kbits/s speed=0.198x elapsed=0:00:52.79    frame=  259 fps=4.9 q=33.0 size=    3584KiB time=00:00:10.71 bitrate=2739.1kbits/s speed=0.201x elapsed=0:00:53.29    frame=  268 fps=5.0 q=33.0 size=    3584KiB time=00:00:11.09 bitrate=2646.4kbits/s speed=0.206x elapsed=0:00:53.79    frame=  273 fps=5.0 q=33.0 size=    3584KiB time=00:00:11.30 bitrate=2597.6kbits/s speed=0.208x elapsed=0:00:54.29    frame=  274 fps=5.0 q=33.0 size=    3584KiB time=00:00:11.34 bitrate=2588.0kbits/s speed=0.207x elapsed=0:00:54.79    frame=  279 fps=5.0 q=33.0 size=    3584KiB time=00:00:11.55 bitrate=2541.3kbits/s speed=0.209x elapsed=0:00:55.29    frame=  284 fps=5.1 q=33.0 size=    3584KiB time=00:00:11.76 bitrate=2496.3kbits/s speed=0.211x elapsed=0:00:55.81    frame=  289 fps=5.1 q=33.0 size=    3584KiB time=00:00:11.97 bitrate=2452.8kbits/s speed=0.213x elapsed=0:00:56.31    frame=  296 fps=5.2 q=33.0 size=    3584KiB time=00:00:12.26 bitrate=2394.4kbits/s speed=0.216x elapsed=0:00:56.81    frame=  299 fps=5.2 q=33.0 size=    3584KiB time=00:00:12.38 bitrate=2370.2kbits/s speed=0.216x elapsed=0:00:57.31    frame=  307 fps=5.3 q=33.0 size=    3584KiB time=00:00:12.72 bitrate=2308.0kbits/s speed=0.22x elapsed=0:00:57.81    frame=  313 fps=5.4 q=33.0 size=    3584KiB time=00:00:12.97 bitrate=2263.5kbits/s speed=0.222x elapsed=0:00:58.31    frame=  319 fps=5.4 q=33.0 size=    3584KiB time=00:00:13.22 bitrate=2220.7kbits/s speed=0.225x elapsed=0:00:58.81    frame=  328 fps=5.5 q=33.0 size=    3584KiB time=N/A bitrate=N/A speed=N/A elapsed=0:00:59.31    frame=  334 fps=5.6 q=33.0 size=    3584KiB time=N/A bitrate=N/A speed=N/A elapsed=0:00:59.81    frame=  343 fps=5.7 q=33.0 size=    3584KiB time=N/A bitrate=N/A speed=N/A elapsed=0:01:00.31    frame=  353 fps=5.8 q=33.0 size=    3584KiB time=N/A bitrate=N/A speed=N/A elapsed=0:01:00.81    [out#0/mp4 @ 0x55af45ad1e80] video:3495KiB audio:239KiB subtitle:0KiB other streams:0KiB global headers:0KiB muxing overhead: 0.301446%
frame=  360 fps=5.9 q=-1.0 Lsize=    3745KiB time=00:00:14.93 bitrate=2054.6kbits/s speed=0.245x elapsed=0:01:01.06    
[libx264 @ 0x55af45b2c080] frame I:6     Avg QP:20.26  size: 35473
[libx264 @ 0x55af45b2c080] frame P:228   Avg QP:22.90  size: 14028
[libx264 @ 0x55af45b2c080] frame B:126   Avg QP:21.10  size:  1326
[libx264 @ 0x55af45b2c080] consecutive B-frames: 51.1%  3.9%  8.3% 36.7%
[libx264 @ 0x55af45b2c080] mb I  I16..4: 52.0% 46.9%  1.1%
[libx264 @ 0x55af45b2c080] mb P  I16..4: 16.5% 13.9%  0.1%  P16..4:  9.4%  1.1%  0.1%  0.0%  0.0%    skip:58.9%
[libx264 @ 0x55af45b2c080] mb B  I16..4:  0.7%  0.4%  0.0%  B16..8:  2.3%  0.1%  0.0%  direct: 0.9%  skip:95.6%  L0:59.7% L1:39.1% BI: 1.2%
[libx264 @ 0x55af45b2c080] 8x8 transform intra:45.6% inter:75.2%
[libx264 @ 0x55af45b2c080] coded y,uvDC,uvAC intra: 15.9% 31.4% 2.6% inter: 0.9% 4.5% 0.1%
[libx264 @ 0x55af45b2c080] i16 v,h,dc,p: 54% 26%  9% 10%
[libx264 @ 0x55af45b2c080] i8 v,h,dc,ddl,ddr,vr,hd,vl,hu: 25% 29% 28%  4%  3%  3%  3%  3%  3%
[libx264 @ 0x55af45b2c080] i4 v,h,dc,ddl,ddr,vr,hd,vl,hu: 28% 25% 14%  4%  7%  6%  7%  5%  4%
[libx264 @ 0x55af45b2c080] i8c dc,h,v,p: 51% 23% 22%  4%
[libx264 @ 0x55af45b2c080] Weighted P-Frames: Y:5.7% UV:2.2%
[libx264 @ 0x55af45b2c080] ref P L0: 86.8% 13.2%
[libx264 @ 0x55af45b2c080] ref B L0: 81.6% 18.4%
[libx264 @ 0x55af45b2c080] ref B L1: 96.6%  3.4%
[libx264 @ 0x55af45b2c080] kb/s:1906.45
[aac @ 0x55af45c00980] Qavg: 1108.607
Transcoding /tmp/tmpnh5whpo9/ForBiggerBlazes.mp4 to 2160p -> /tmp/tmpnh5whpo9/ForBiggerBlazes.mp4_2160p.mp4
ffmpeg version 8.0.1-3 Copyright (c) 2000-2025 the FFmpeg developers
  built with gcc 15 (Debian 15.2.0-12)
  configuration: --prefix=/usr --extra-version=3 --toolchain=hardened --libdir=/usr/lib/x86_64-linux-gnu --incdir=/usr/include/x86_64-linux-gnu --arch=amd64 --enable-gpl --disable-stripping --disable-pocketsphinx --disable-libcaca --disable-libmfx --disable-omx --enable-gnutls --enable-libaom --enable-libass --enable-libbs2b --enable-libcdio --enable-libcodec2 --enable-libdav1d --enable-libflite --enable-libfontconfig --enable-libfreetype --enable-libfribidi --enable-libglslang --enable-libgme --enable-libgsm --enable-libharfbuzz --enable-libmp3lame --enable-libmysofa --enable-libopenjpeg --enable-libopenmpt --enable-libopus --enable-librubberband --enable-libshine --enable-libsnappy --enable-libsoxr --enable-libspeex --enable-libtheora --enable-libtwolame --enable-libvidstab --enable-libvorbis --enable-libvpx --enable-libwebp --enable-libx265 --enable-libxml2 --enable-libxvid --enable-libzimg --enable-openal --enable-opencl --enable-opengl --disable-sndio --enable-libvpl --enable-libdc1394 --enable-libdrm --enable-libiec61883 --enable-chromaprint --enable-frei0r --enable-ladspa --enable-libbluray --enable-libdvdnav --enable-libdvdread --enable-libjack --enable-libjxl --enable-libpulse --enable-librabbitmq --enable-librist --enable-libsrt --enable-libssh --enable-libsvtav1 --enable-libx264 --enable-libzmq --enable-libzvbi --enable-lv2 --enable-sdl2 --enable-libplacebo --enable-librav1e --enable-librsvg --enable-shared
  libavutil      60.  8.100 / 60.  8.100
  libavcodec     62. 11.100 / 62. 11.100
  libavformat    62.  3.100 / 62.  3.100
  libavdevice    62.  1.100 / 62.  1.100
  libavfilter    11.  4.100 / 11.  4.100
  libswscale      9.  1.100 /  9.  1.100
  libswresample   6.  1.100 /  6.  1.100
Input #0, mov,mp4,m4a,3gp,3g2,mj2, from '/tmp/tmpnh5whpo9/ForBiggerBlazes.mp4':
  Metadata:
    major_brand     : mp42
    minor_version   : 0
    compatible_brands: isommp42
    creation_time   : 2013-11-21T04:34:28.000000Z
  Duration: 00:00:15.02, start: 0.000000, bitrate: 1330 kb/s
  Stream #0:0[0x1](und): Video: h264 (High) (avc1 / 0x31637661), yuv420p(progressive), 1280x720, 1135 kb/s, 23.98 fps, 23.98 tbr, 48k tbn (default)
    Metadata:
      handler_name    : VideoHandler
      vendor_id       : [0][0][0][0]
  Stream #0:1[0x2](und): Audio: aac (LC) (mp4a / 0x6134706D), 44100 Hz, stereo, fltp, 192 kb/s (default)
    Metadata:
      creation_time   : 2013-11-21T04:34:29.000000Z
      handler_name    : IsoMedia File Produced by Google, 5-11-2011
      vendor_id       : [0][0][0][0]
Stream mapping:
  Stream #0:0 -> #0:0 (h264 (native) -> h264 (libx264))
  Stream #0:1 -> #0:1 (aac (native) -> aac (native))
Press [q] to stop, [?] for help
[libx264 @ 0x557f33efe080] using cpu capabilities: MMX2 SSE2Fast SSSE3 SSE4.2 AVX FMA3 BMI2 AVX2
[libx264 @ 0x557f33efe080] profile High, level 5.1, 4:2:0, 8-bit
[libx264 @ 0x557f33efe080] 264 - core 165 - H.264/MPEG-4 AVC codec - Copyleft 2003-2025 - http://www.videolan.org/x264.html - options: cabac=1 ref=2 deblock=1:0:0 analyse=0x3:0x113 me=hex subme=4 psy=1 psy_rd=1.00:0.00 mixed_ref=0 me_range=16 chroma_me=1 trellis=1 8x8dct=1 cqm=0 deadzone=21,11 fast_pskip=1 chroma_qp_offset=0 threads=6 lookahead_threads=1 sliced_threads=0 nr=0 decimate=1 interlaced=0 bluray_compat=0 constrained_intra=0 bframes=3 b_pyramid=2 b_adapt=1 b_bias=0 direct=1 weightb=1 open_gop=0 weightp=1 keyint=250 keyint_min=23 scenecut=40 intra_refresh=0 rc_lookahead=20 rc=crf mbtree=1 crf=28.0 qcomp=0.60 qpmin=0 qpmax=69 qpstep=4 ip_ratio=1.40 aq=1:1.00
Output #0, mp4, to '/tmp/tmpnh5whpo9/ForBiggerBlazes.mp4_2160p.mp4':
  Metadata:
    major_brand     : mp42
    minor_version   : 0
    compatible_brands: isommp42
    encoder         : Lavf62.3.100
  Stream #0:0(und): Video: h264 (avc1 / 0x31637661), yuv420p(tv, progressive), 3840x2160, q=2-31, 23.98 fps, 24k tbn (default)
    Metadata:
      encoder         : Lavc62.11.100 libx264
      handler_name    : VideoHandler
      vendor_id       : [0][0][0][0]
    Side data:
      cpb: bitrate max/min/avg: 0/0/0 buffer size: 0 vbv_delay: N/A
  Stream #0:1(und): Audio: aac (LC) (mp4a / 0x6134706D), 44100 Hz, stereo, fltp, 128 kb/s (default)
    Metadata:
      encoder         : Lavc62.11.100 aac
      creation_time   : 2013-11-21T04:34:29.000000Z
      handler_name    : IsoMedia File Produced by Google, 5-11-2011
      vendor_id       : [0][0][0][0]
frame=    0 fps=0.0 q=0.0 size=       0KiB time=N/A bitrate=N/A speed=N/A elapsed=0:00:00.50    frame=    0 fps=0.0 q=0.0 size=       0KiB time=N/A bitrate=N/A speed=N/A elapsed=0:00:01.00    frame=    0 fps=0.0 q=0.0 size=       0KiB time=N/A bitrate=N/A speed=N/A elapsed=0:00:01.50    frame=    0 fps=0.0 q=0.0 size=       0KiB time=N/A bitrate=N/A speed=N/A elapsed=0:00:02.01    frame=    0 fps=0.0 q=0.0 size=       0KiB time=N/A bitrate=N/A speed=N/A elapsed=0:00:02.51    frame=    0 fps=0.0 q=0.0 size=       0KiB time=N/A bitrate=N/A speed=N/A elapsed=0:00:03.01    frame=    0 fps=0.0 q=0.0 size=       0KiB time=N/A bitrate=N/A speed=N/A elapsed=0:00:03.51    frame=    0 fps=0.0 q=0.0 size=       0KiB time=N/A bitrate=N/A speed=N/A elapsed=0:00:04.01    frame=    0 fps=0.0 q=0.0 size=       0KiB time=N/A bitrate=N/A speed=N/A elapsed=0:00:04.51    frame=    0 fps=0.0 q=0.0 size=       0KiB time=N/A bitrate=N/A speed=N/A elapsed=0:00:05.01    frame=    0 fps=0.0 q=0.0 size=       0KiB time=N/A bitrate=N/A speed=N/A elapsed=0:00:05.51    frame=    0 fps=0.0 q=0.0 size=       0KiB time=N/A bitrate=N/A speed=N/A elapsed=0:00:06.01    frame=    2 fps=0.3 q=33.0 size=       0KiB time=00:00:00.00 bitrate=N/A speed=   0x elapsed=0:00:06.51    frame=    5 fps=0.7 q=33.0 size=       0KiB time=00:00:00.12 bitrate=   3.1kbits/s speed=0.0178x elapsed=0:00:07.01    frame=    6 fps=0.8 q=33.0 size=       0KiB time=00:00:00.16 bitrate=   2.3kbits/s speed=0.0222x elapsed=0:00:07.51    frame=    9 fps=1.1 q=33.0 size=       0KiB time=00:00:00.29 bitrate=   1.3kbits/s speed=0.0364x elapsed=0:00:08.01    frame=   10 fps=1.2 q=33.0 size=       0KiB time=00:00:00.33 bitrate=   1.2kbits/s speed=0.0391x elapsed=0:00:08.53    frame=   12 fps=1.3 q=33.0 size=       0KiB time=00:00:00.41 bitrate=   0.9kbits/s speed=0.0462x elapsed=0:00:09.03    frame=   14 fps=1.5 q=33.0 size=     256KiB time=00:00:00.50 bitrate=4190.9kbits/s speed=0.0525x elapsed=0:00:09.54    frame=   17 fps=1.7 q=33.0 size=     256KiB time=00:00:00.62 bitrate=3352.7kbits/s speed=0.0623x elapsed=0:00:10.04    frame=   17 fps=1.6 q=33.0 size=     256KiB time=00:00:00.62 bitrate=3352.7kbits/s speed=0.0593x elapsed=0:00:10.54    frame=   20 fps=1.8 q=33.0 size=     256KiB time=00:00:00.75 bitrate=2793.9kbits/s speed=0.068x elapsed=0:00:11.04    frame=   23 fps=2.0 q=33.0 size=     256KiB time=00:00:00.87 bitrate=2394.8kbits/s speed=0.0758x elapsed=0:00:11.55    frame=   24 fps=2.0 q=33.0 size=     256KiB time=00:00:00.91 bitrate=2285.9kbits/s speed=0.0761x elapsed=0:00:12.05    frame=   27 fps=2.1 q=33.0 size=     256KiB time=00:00:01.04 bitrate=2011.6kbits/s speed=0.083x elapsed=0:00:12.56    frame=   27 fps=2.1 q=33.0 size=     256KiB time=00:00:01.04 bitrate=2011.6kbits/s speed=0.0798x elapsed=0:00:13.06    frame=   30 fps=2.2 q=33.0 size=     256KiB time=00:00:01.16 bitrate=1796.1kbits/s speed=0.0861x elapsed=0:00:13.56    frame=   33 fps=2.3 q=33.0 size=     256KiB time=00:00:01.29 bitrate=1622.3kbits/s speed=0.0919x elapsed=0:00:14.06    frame=   34 fps=2.3 q=33.0 size=     512KiB time=00:00:01.33 bitrate=3142.9kbits/s speed=0.0916x elapsed=0:00:14.56    frame=   36 fps=2.4 q=33.0 size=     512KiB time=00:00:01.41 bitrate=2958.0kbits/s speed=0.0941x elapsed=0:00:15.06    frame=   38 fps=2.4 q=33.0 size=     512KiB time=00:00:01.50 bitrate=2793.7kbits/s speed=0.0964x elapsed=0:00:15.56    frame=   43 fps=2.7 q=33.0 size=     512KiB time=00:00:01.71 bitrate=2453.0kbits/s speed=0.106x elapsed=0:00:16.06    frame=   46 fps=2.8 q=33.0 size=     512KiB time=00:00:01.83 bitrate=2285.7kbits/s speed=0.111x elapsed=0:00:16.56    frame=   50 fps=2.9 q=33.0 size=     512KiB time=00:00:02.00 bitrate=2095.2kbits/s speed=0.117x elapsed=0:00:17.07    frame=   50 fps=2.8 q=33.0 size=     512KiB time=00:00:02.00 bitrate=2095.2kbits/s speed=0.114x elapsed=0:00:17.57    frame=   54 fps=3.0 q=33.0 size=     768KiB time=00:00:02.16 bitrate=2901.0kbits/s speed=0.12x elapsed=0:00:18.07    frame=   57 fps=3.1 q=33.0 size=     768KiB time=00:00:02.29 bitrate=2742.8kbits/s speed=0.124x elapsed=0:00:18.57    frame=   59 fps=3.1 q=33.0 size=     768KiB time=00:00:02.37 bitrate=2646.5kbits/s speed=0.125x elapsed=0:00:19.07    frame=   63 fps=3.2 q=33.0 size=     768KiB time=00:00:02.54 bitrate=2473.0kbits/s speed=0.13x elapsed=0:00:19.57    frame=   63 fps=3.1 q=33.0 size=     768KiB time=00:00:02.54 bitrate=2473.0kbits/s speed=0.127x elapsed=0:00:20.07    frame=   66 fps=3.2 q=33.0 size=     768KiB time=00:00:02.66 bitrate=2357.1kbits/s speed=0.13x elapsed=0:00:20.57    frame=   67 fps=3.2 q=33.0 size=     768KiB time=00:00:02.71 bitrate=2320.8kbits/s speed=0.129x elapsed=0:00:21.07    frame=   69 fps=3.2 q=33.0 size=     768KiB time=00:00:02.79 bitrate=2251.5kbits/s speed=0.13x elapsed=0:00:21.57    frame=   71 fps=3.2 q=33.0 size=     768KiB time=00:00:02.87 bitrate=2186.3kbits/s speed=0.13x elapsed=0:00:22.07    frame=   74 fps=3.3 q=33.0 size=    1024KiB time=00:00:03.00 bitrate=2793.5kbits/s speed=0.133x elapsed=0:00:22.57    frame=   74 fps=3.2 q=33.0 size=    1024KiB time=00:00:03.00 bitrate=2793.5kbits/s speed=0.13x elapsed=0:00:23.07    frame=   77 fps=3.3 q=33.0 size=    1024KiB time=00:00:03.12 bitrate=2681.8kbits/s speed=0.133x elapsed=0:00:23.57    frame=   78 fps=3.2 q=33.0 size=    1024KiB time=00:00:03.16 bitrate=2646.5kbits/s speed=0.132x elapsed=0:00:24.07    frame=   80 fps=3.3 q=33.0 size=    1024KiB time=00:00:03.25 bitrate=2578.6kbits/s speed=0.132x elapsed=0:00:24.57    frame=   81 fps=3.2 q=33.0 size=    1024KiB time=00:00:03.29 bitrate=2546.0kbits/s speed=0.131x elapsed=0:00:25.08    frame=   81 fps=3.2 q=33.0 size=    1024KiB time=00:00:03.29 bitrate=2546.0kbits/s speed=0.129x elapsed=0:00:25.58    frame=   81 fps=3.1 q=33.0 size=    1024KiB time=00:00:03.29 bitrate=2546.0kbits/s speed=0.126x elapsed=0:00:26.08    frame=   82 fps=3.1 q=30.0 size=    1024KiB time=00:00:03.33 bitrate=2514.2kbits/s speed=0.125x elapsed=0:00:26.58    frame=   84 fps=3.1 q=33.0 size=    1280KiB time=00:00:03.42 bitrate=3066.0kbits/s speed=0.126x elapsed=0:00:27.08    frame=   84 fps=3.0 q=33.0 size=    1280KiB time=00:00:03.42 bitrate=3066.0kbits/s speed=0.124x elapsed=0:00:27.58    frame=   85 fps=3.0 q=33.0 size=    1280KiB time=00:00:03.46 bitrate=3029.1kbits/s speed=0.123x elapsed=0:00:28.08    frame=   87 fps=3.0 q=33.0 size=    1280KiB time=00:00:03.54 bitrate=2957.8kbits/s speed=0.124x elapsed=0:00:28.59    frame=   88 fps=3.0 q=33.0 size=    1280KiB time=00:00:03.58 bitrate=2923.4kbits/s speed=0.123x elapsed=0:00:29.10    frame=   89 fps=3.0 q=33.0 size=    1280KiB time=00:00:03.62 bitrate=2889.8kbits/s speed=0.123x elapsed=0:00:29.60    frame=   89 fps=3.0 q=33.0 size=    1280KiB time=00:00:03.62 bitrate=2889.8kbits/s speed=0.121x elapsed=0:00:30.10    frame=   89 fps=2.9 q=33.0 size=    1280KiB time=00:00:03.62 bitrate=2889.8kbits/s speed=0.119x elapsed=0:00:30.61    frame=   91 fps=2.9 q=33.0 size=    1536KiB time=00:00:03.71 bitrate=3389.9kbits/s speed=0.119x elapsed=0:00:31.11    frame=   92 fps=2.9 q=33.0 size=    1536KiB time=00:00:03.75 bitrate=3352.2kbits/s speed=0.119x elapsed=0:00:31.61    frame=   93 fps=2.9 q=33.0 size=    1536KiB time=00:00:03.79 bitrate=3315.4kbits/s speed=0.118x elapsed=0:00:32.11    frame=   94 fps=2.9 q=33.0 size=    1536KiB time=00:00:03.83 bitrate=3279.3kbits/s speed=0.118x elapsed=0:00:32.61    frame=   95 fps=2.9 q=30.0 size=    1536KiB time=00:00:03.87 bitrate=3244.1kbits/s speed=0.117x elapsed=0:00:33.11    frame=   96 fps=2.9 q=33.0 size=    1792KiB time=00:00:03.92 bitrate=3744.5kbits/s speed=0.117x elapsed=0:00:33.61    frame=   96 fps=2.8 q=33.0 size=    1792KiB time=00:00:03.92 bitrate=3744.5kbits/s speed=0.115x elapsed=0:00:34.11    frame=   97 fps=2.8 q=33.0 size=    1792KiB time=00:00:03.96 bitrate=3705.0kbits/s speed=0.114x elapsed=0:00:34.61    frame=   99 fps=2.8 q=33.0 size=    1792KiB time=00:00:04.04 bitrate=3628.6kbits/s speed=0.115x elapsed=0:00:35.12    frame=  101 fps=2.8 q=33.0 size=    2048KiB time=00:00:04.12 bitrate=4063.2kbits/s speed=0.116x elapsed=0:00:35.62    frame=  102 fps=2.8 q=33.0 size=    2048KiB time=00:00:04.17 bitrate=4022.6kbits/s speed=0.115x elapsed=0:00:36.12    frame=  103 fps=2.8 q=33.0 size=    2048KiB time=00:00:04.21 bitrate=3982.8kbits/s speed=0.115x elapsed=0:00:36.62    frame=  103 fps=2.8 q=33.0 size=    2048KiB time=00:00:04.21 bitrate=3982.8kbits/s speed=0.113x elapsed=0:00:37.12    frame=  105 fps=2.8 q=33.0 size=    2048KiB time=00:00:04.29 bitrate=3905.4kbits/s speed=0.114x elapsed=0:00:37.62    frame=  106 fps=2.8 q=33.0 size=    2048KiB time=00:00:04.33 bitrate=3867.9kbits/s speed=0.114x elapsed=0:00:38.12    frame=  106 fps=2.7 q=33.0 size=    2048KiB time=00:00:04.33 bitrate=3867.9kbits/s speed=0.112x elapsed=0:00:38.62    frame=  108 fps=2.8 q=33.0 size=    2304KiB time=00:00:04.42 bitrate=4269.3kbits/s speed=0.113x elapsed=0:00:39.12    frame=  109 fps=2.8 q=33.0 size=    2304KiB time=00:00:04.46 bitrate=4229.4kbits/s speed=0.113x elapsed=0:00:39.62    frame=  109 fps=2.7 q=33.0 size=    2304KiB time=00:00:04.46 bitrate=4229.4kbits/s speed=0.111x elapsed=0:00:40.12    frame=  111 fps=2.7 q=33.0 size=    2304KiB time=00:00:04.54 bitrate=4151.8kbits/s speed=0.112x elapsed=0:00:40.62    frame=  111 fps=2.7 q=33.0 size=    2304KiB time=00:00:04.54 bitrate=4151.8kbits/s speed=0.111x elapsed=0:00:41.13    frame=  112 fps=2.7 q=33.0 size=    2304KiB time=00:00:04.58 bitrate=4114.0kbits/s speed=0.11x elapsed=0:00:41.64    frame=  113 fps=2.7 q=33.0 size=    2560KiB time=00:00:04.62 bitrate=4529.9kbits/s speed=0.11x elapsed=0:00:42.14    frame=  114 fps=2.7 q=33.0 size=    2560KiB time=00:00:04.67 bitrate=4489.5kbits/s speed=0.11x elapsed=0:00:42.65    frame=  115 fps=2.7 q=33.0 size=    2560KiB time=00:00:04.71 bitrate=4449.8kbits/s speed=0.109x elapsed=0:00:43.15    frame=  116 fps=2.7 q=33.0 size=    2560KiB time=00:00:04.75 bitrate=4410.7kbits/s speed=0.109x elapsed=0:00:43.65    frame=  117 fps=2.6 q=33.0 size=    2560KiB time=00:00:04.79 bitrate=4372.4kbits/s speed=0.109x elapsed=0:00:44.16    frame=  120 fps=2.7 q=33.0 size=    2816KiB time=00:00:04.92 bitrate=4687.3kbits/s speed=0.11x elapsed=0:00:44.66    frame=  121 fps=2.7 q=33.0 size=    2816KiB time=00:00:04.96 bitrate=4647.9kbits/s speed=0.11x elapsed=0:00:45.17    frame=  122 fps=2.7 q=33.0 size=    2816KiB time=00:00:05.00 bitrate=4609.2kbits/s speed=0.11x elapsed=0:00:45.67    frame=  123 fps=2.7 q=33.0 size=    2816KiB time=00:00:05.04 bitrate=4571.1kbits/s speed=0.109x elapsed=0:00:46.18    frame=  123 fps=2.6 q=33.0 size=    2816KiB time=00:00:05.04 bitrate=4571.1kbits/s speed=0.108x elapsed=0:00:46.69    frame=  124 fps=2.6 q=33.0 size=    3072KiB time=00:00:05.08 bitrate=4945.8kbits/s speed=0.108x elapsed=0:00:47.19    frame=  124 fps=2.6 q=33.0 size=    3072KiB time=00:00:05.08 bitrate=4945.8kbits/s speed=0.107x elapsed=0:00:47.69    frame=  124 fps=2.6 q=33.0 size=    3072KiB time=00:00:05.08 bitrate=4945.8kbits/s speed=0.106x elapsed=0:00:48.19    frame=  125 fps=2.6 q=33.0 size=    3072KiB time=00:00:05.13 bitrate=4905.6kbits/s speed=0.105x elapsed=0:00:48.69    frame=  127 fps=2.6 q=33.0 size=    3072KiB time=00:00:05.21 bitrate=4827.1kbits/s speed=0.106x elapsed=0:00:49.19    frame=  129 fps=2.6 q=33.0 size=    3328KiB time=00:00:05.29 bitrate=5147.0kbits/s speed=0.107x elapsed=0:00:49.70    frame=  130 fps=2.6 q=33.0 size=    3328KiB time=00:00:05.33 bitrate=5106.8kbits/s speed=0.106x elapsed=0:00:50.20    frame=  131 fps=2.6 q=33.0 size=    3328KiB time=00:00:05.38 bitrate=5067.2kbits/s speed=0.106x elapsed=0:00:50.70    frame=  131 fps=2.6 q=33.0 size=    3328KiB time=00:00:05.38 bitrate=5067.2kbits/s speed=0.105x elapsed=0:00:51.20    frame=  132 fps=2.6 q=30.0 size=    3328KiB time=00:00:05.42 bitrate=5028.2kbits/s speed=0.105x elapsed=0:00:51.70    frame=  133 fps=2.5 q=33.0 size=    3328KiB time=00:00:05.46 bitrate=4989.8kbits/s speed=0.105x elapsed=0:00:52.20    frame=  133 fps=2.5 q=33.0 size=    3328KiB time=00:00:05.46 bitrate=4989.8kbits/s speed=0.104x elapsed=0:00:52.70    frame=  133 fps=2.5 q=33.0 size=    3328KiB time=00:00:05.46 bitrate=4989.8kbits/s speed=0.103x elapsed=0:00:53.20    frame=  135 fps=2.5 q=33.0 size=    3584KiB time=00:00:05.54 bitrate=5292.8kbits/s speed=0.103x elapsed=0:00:53.70    frame=  138 fps=2.5 q=33.0 size=    3840KiB time=00:00:05.67 bitrate=5545.8kbits/s speed=0.105x elapsed=0:00:54.20    frame=  139 fps=2.5 q=33.0 size=    3840KiB time=00:00:05.71 bitrate=5505.3kbits/s speed=0.104x elapsed=0:00:54.70    frame=  140 fps=2.5 q=33.0 size=    3840KiB time=00:00:05.75 bitrate=5465.4kbits/s speed=0.104x elapsed=0:00:55.20    frame=  140 fps=2.5 q=33.0 size=    3840KiB time=00:00:05.75 bitrate=5465.4kbits/s speed=0.103x elapsed=0:00:55.71    frame=  140 fps=2.5 q=33.0 size=    3840KiB time=00:00:05.75 bitrate=5465.4kbits/s speed=0.102x elapsed=0:00:56.21    frame=  141 fps=2.5 q=33.0 size=    3840KiB time=00:00:05.79 bitrate=5426.1kbits/s speed=0.102x elapsed=0:00:56.71    frame=  143 fps=2.5 q=33.0 size=    4096KiB time=00:00:05.88 bitrate=5705.8kbits/s speed=0.103x elapsed=0:00:57.21    frame=  143 fps=2.5 q=33.0 size=    4096KiB time=00:00:05.88 bitrate=5705.8kbits/s speed=0.102x elapsed=0:00:57.72    frame=  143 fps=2.5 q=33.0 size=    4096KiB time=00:00:05.88 bitrate=5705.8kbits/s speed=0.101x elapsed=0:00:58.22    frame=  145 fps=2.5 q=33.0 size=    4096KiB time=00:00:05.96 bitrate=5626.0kbits/s speed=0.102x elapsed=0:00:58.72    frame=  145 fps=2.4 q=33.0 size=    4096KiB time=00:00:05.96 bitrate=5626.0kbits/s speed=0.101x elapsed=0:00:59.22    frame=  146 fps=2.4 q=33.0 size=    4096KiB time=00:00:06.00 bitrate=5586.9kbits/s speed=0.101x elapsed=0:00:59.72    frame=  148 fps=2.5 q=33.0 size=    4096KiB time=00:00:06.08 bitrate=5510.3kbits/s speed=0.101x elapsed=0:01:00.23    frame=  148 fps=2.4 q=33.0 size=    4096KiB time=00:00:06.08 bitrate=5510.3kbits/s speed= 0.1x elapsed=0:01:00.73    frame=  148 fps=2.4 q=33.0 size=    4096KiB time=00:00:06.08 bitrate=5510.3kbits/s speed=0.0994x elapsed=0:01:01.23    frame=  150 fps=2.4 q=33.0 size=    4352KiB time=00:00:06.17 bitrate=5775.6kbits/s speed= 0.1x elapsed=0:01:01.74    frame=  150 fps=2.4 q=33.0 size=    4352KiB time=00:00:06.17 bitrate=5775.6kbits/s speed=0.0992x elapsed=0:01:02.24    frame=  153 fps=2.4 q=33.0 size=    4352KiB time=00:00:06.29 bitrate=5660.9kbits/s speed= 0.1x elapsed=0:01:02.74    frame=  153 fps=2.4 q=33.0 size=    4352KiB time=00:00:06.29 bitrate=5660.9kbits/s speed=0.0996x elapsed=0:01:03.24    frame=  155 fps=2.4 q=33.0 size=    4352KiB time=00:00:06.38 bitrate=5586.9kbits/s speed= 0.1x elapsed=0:01:03.74    frame=  155 fps=2.4 q=33.0 size=    4352KiB time=00:00:06.38 bitrate=5586.9kbits/s speed=0.0993x elapsed=0:01:04.24    frame=  155 fps=2.4 q=33.0 size=    4352KiB time=00:00:06.38 bitrate=5586.9kbits/s speed=0.0986x elapsed=0:01:04.74    frame=  157 fps=2.4 q=33.0 size=    4608KiB time=00:00:06.46 bitrate=5839.2kbits/s speed=0.0991x elapsed=0:01:05.24    frame=  160 fps=2.4 q=33.0 size=    4608KiB time=00:00:06.58 bitrate=5728.3kbits/s speed= 0.1x elapsed=0:01:05.75    frame=  160 fps=2.4 q=33.0 size=    4608KiB time=00:00:06.58 bitrate=5728.3kbits/s speed=0.0995x elapsed=0:01:06.26    frame=  160 fps=2.4 q=33.0 size=    4608KiB time=00:00:06.58 bitrate=5728.3kbits/s speed=0.0987x elapsed=0:01:06.76    frame=  162 fps=2.4 q=33.0 size=    4608KiB time=00:00:06.67 bitrate=5656.7kbits/s speed=0.0992x elapsed=0:01:07.26    frame=  162 fps=2.4 q=33.0 size=    4608KiB time=00:00:06.67 bitrate=5656.7kbits/s speed=0.0985x elapsed=0:01:07.77    frame=  163 fps=2.4 q=33.0 size=    4864KiB time=00:00:06.71 bitrate=5933.9kbits/s speed=0.0984x elapsed=0:01:08.27    frame=  164 fps=2.4 q=33.0 size=    4864KiB time=00:00:06.75 bitrate=5897.3kbits/s speed=0.0982x elapsed=0:01:08.77    frame=  166 fps=2.4 q=33.0 size=    4864KiB time=00:00:06.84 bitrate=5825.3kbits/s speed=0.0987x elapsed=0:01:09.27    frame=  166 fps=2.4 q=33.0 size=    4864KiB time=00:00:06.84 bitrate=5825.3kbits/s speed=0.098x elapsed=0:01:09.77    frame=  167 fps=2.4 q=33.0 size=    4864KiB time=00:00:06.88 bitrate=5790.0kbits/s speed=0.0979x elapsed=0:01:10.27    frame=  169 fps=2.4 q=33.0 size=    4864KiB time=00:00:06.96 bitrate=5720.7kbits/s speed=0.0984x elapsed=0:01:10.81    frame=  169 fps=2.4 q=33.0 size=    4864KiB time=00:00:06.96 bitrate=5720.7kbits/s speed=0.0977x elapsed=0:01:11.31    frame=  170 fps=2.4 q=33.0 size=    5120KiB time=00:00:07.00 bitrate=5985.9kbits/s speed=0.0976x elapsed=0:01:11.81    frame=  170 fps=2.4 q=33.0 size=    5120KiB time=00:00:07.00 bitrate=5985.9kbits/s speed=0.0969x elapsed=0:01:12.31    frame=  172 fps=2.4 q=33.0 size=    5120KiB time=00:00:07.09 bitrate=5915.5kbits/s speed=0.0973x elapsed=0:01:12.83    frame=  174 fps=2.4 q=33.0 size=    5120KiB time=00:00:07.17 bitrate=5846.7kbits/s speed=0.0978x elapsed=0:01:13.33    frame=  175 fps=2.4 q=33.0 size=    5120KiB time=00:00:07.21 bitrate=5812.9kbits/s speed=0.0977x elapsed=0:01:13.84    frame=  176 fps=2.4 q=33.0 size=    5120KiB time=00:00:07.25 bitrate=5779.5kbits/s speed=0.0976x elapsed=0:01:14.34    frame=  177 fps=2.4 q=33.0 size=    5376KiB time=00:00:07.29 bitrate=6033.8kbits/s speed=0.0975x elapsed=0:01:14.84    frame=  178 fps=2.4 q=33.0 size=    5376KiB time=00:00:07.34 bitrate=5999.5kbits/s speed=0.0974x elapsed=0:01:15.34    frame=  178 fps=2.3 q=33.0 size=    5376KiB time=00:00:07.34 bitrate=5999.5kbits/s speed=0.0968x elapsed=0:01:15.84    frame=  179 fps=2.3 q=33.0 size=    5376KiB time=00:00:07.38 bitrate=5965.6kbits/s speed=0.0967x elapsed=0:01:16.34    frame=  179 fps=2.3 q=33.0 size=    5376KiB time=00:00:07.38 bitrate=5965.6kbits/s speed=0.0961x elapsed=0:01:16.84    frame=  179 fps=2.3 q=33.0 size=    5376KiB time=00:00:07.38 bitrate=5965.6kbits/s speed=0.0954x elapsed=0:01:17.35    frame=  179 fps=2.3 q=33.0 size=    5376KiB time=00:00:07.38 bitrate=5965.6kbits/s speed=0.0948x elapsed=0:01:17.85    frame=  181 fps=2.3 q=33.0 size=    5376KiB time=00:00:07.46 bitrate=5899.0kbits/s speed=0.0953x elapsed=0:01:18.35    frame=  182 fps=2.3 q=33.0 size=    5376KiB time=00:00:07.50 bitrate=5866.2kbits/s speed=0.0952x elapsed=0:01:18.86    frame=  182 fps=2.3 q=33.0 size=    5376KiB time=00:00:07.50 bitrate=5866.2kbits/s speed=0.0946x elapsed=0:01:19.38    frame=  185 fps=2.3 q=33.0 size=    5632KiB time=00:00:07.63 bitrate=6044.8kbits/s speed=0.0955x elapsed=0:01:19.88    frame=  185 fps=2.3 q=33.0 size=    5632KiB time=00:00:07.63 bitrate=6044.8kbits/s speed=0.095x elapsed=0:01:20.38    frame=  187 fps=2.3 q=33.0 size=    5632KiB time=00:00:07.71 bitrate=5979.5kbits/s speed=0.0954x elapsed=0:01:20.88    frame=  187 fps=2.3 q=33.0 size=    5632KiB time=00:00:07.71 bitrate=5979.5kbits/s speed=0.0948x elapsed=0:01:21.40    frame=  187 fps=2.3 q=33.0 size=    5632KiB time=00:00:07.71 bitrate=5979.5kbits/s speed=0.0942x elapsed=0:01:21.90    frame=  188 fps=2.3 q=33.0 size=    5632KiB time=00:00:07.75 bitrate=5947.3kbits/s speed=0.0941x elapsed=0:01:22.40    frame=  190 fps=2.3 q=33.0 size=    5632KiB time=00:00:07.84 bitrate=5884.0kbits/s speed=0.0946x elapsed=0:01:22.90    frame=  193 fps=2.3 q=33.0 size=    5888KiB time=00:00:07.96 bitrate=6054.9kbits/s speed=0.0955x elapsed=0:01:23.40    frame=  193 fps=2.3 q=33.0 size=    5888KiB time=00:00:07.96 bitrate=6054.9kbits/s speed=0.0949x elapsed=0:01:23.91    frame=  193 fps=2.3 q=33.0 size=    5888KiB time=00:00:07.96 bitrate=6054.9kbits/s speed=0.0944x elapsed=0:01:24.42    frame=  194 fps=2.3 q=30.0 size=    5888KiB time=00:00:08.00 bitrate=6023.3kbits/s speed=0.0943x elapsed=0:01:24.92    frame=  194 fps=2.3 q=30.0 size=    5888KiB time=00:00:08.00 bitrate=6023.3kbits/s speed=0.0937x elapsed=0:01:25.43    frame=  196 fps=2.3 q=33.0 size=    5888KiB time=00:00:08.09 bitrate=5961.2kbits/s speed=0.0942x elapsed=0:01:25.93    frame=  197 fps=2.3 q=33.0 size=    5888KiB time=00:00:08.13 bitrate=5930.7kbits/s speed=0.0941x elapsed=0:01:26.43    frame=  198 fps=2.3 q=33.0 size=    5888KiB time=00:00:08.17 bitrate=5900.4kbits/s speed=0.094x elapsed=0:01:26.93    frame=  198 fps=2.3 q=33.0 size=    5888KiB time=00:00:08.17 bitrate=5900.4kbits/s speed=0.0935x elapsed=0:01:27.44    frame=  198 fps=2.3 q=33.0 size=    5888KiB time=00:00:08.17 bitrate=5900.4kbits/s speed=0.093x elapsed=0:01:27.94    frame=  201 fps=2.3 q=33.0 size=    6144KiB time=00:00:08.29 bitrate=6064.1kbits/s speed=0.0938x elapsed=0:01:28.44    frame=  201 fps=2.3 q=33.0 size=    6144KiB time=00:00:08.29 bitrate=6064.1kbits/s speed=0.0933x elapsed=0:01:28.94    frame=  203 fps=2.3 q=33.0 size=    6144KiB time=00:00:08.38 bitrate=6003.8kbits/s speed=0.0937x elapsed=0:01:29.45    frame=  203 fps=2.3 q=33.0 size=    6144KiB time=00:00:08.38 bitrate=6003.8kbits/s speed=0.0932x elapsed=0:01:29.95    frame=  204 fps=2.3 q=33.0 size=    6144KiB time=00:00:08.42 bitrate=5974.1kbits/s speed=0.0931x elapsed=0:01:30.45    frame=  205 fps=2.3 q=33.0 size=    6144KiB time=00:00:08.46 bitrate=5944.6kbits/s speed=0.0931x elapsed=0:01:30.95    frame=  206 fps=2.3 q=33.0 size=    6144KiB time=00:00:08.50 bitrate=5915.5kbits/s speed=0.093x elapsed=0:01:31.45    frame=  208 fps=2.3 q=33.0 size=    6144KiB time=00:00:08.59 bitrate=5858.1kbits/s speed=0.0934x elapsed=0:01:31.96    frame=  211 fps=2.3 q=33.0 size=    6400KiB time=00:00:08.71 bitrate=6014.6kbits/s speed=0.0943x elapsed=0:01:32.46    frame=  214 fps=2.3 q=33.0 size=    6400KiB time=00:00:08.84 bitrate=5929.4kbits/s speed=0.0951x elapsed=0:01:32.96    frame=  216 fps=2.3 q=33.0 size=    6400KiB time=00:00:08.92 bitrate=5874.0kbits/s speed=0.0955x elapsed=0:01:33.46    frame=  218 fps=2.3 q=33.0 size=    6400KiB time=00:00:09.00 bitrate=5819.6kbits/s speed=0.0959x elapsed=0:01:33.97    frame=  218 fps=2.3 q=33.0 size=    6400KiB time=00:00:09.00 bitrate=5819.6kbits/s speed=0.0953x elapsed=0:01:34.50    frame=  219 fps=2.3 q=30.0 size=    6400KiB time=00:00:09.05 bitrate=5792.8kbits/s speed=0.0953x elapsed=0:01:35.00    frame=  219 fps=2.3 q=30.0 size=    6400KiB time=00:00:09.05 bitrate=5792.8kbits/s speed=0.0948x elapsed=0:01:35.50    frame=  220 fps=2.3 q=33.0 size=    6400KiB time=00:00:09.09 bitrate=5766.3kbits/s speed=0.0947x elapsed=0:01:36.00    frame=  222 fps=2.3 q=33.0 size=    6400KiB time=00:00:09.17 bitrate=5713.8kbits/s speed=0.0951x elapsed=0:01:36.50    frame=  226 fps=2.3 q=33.0 size=    6400KiB time=00:00:09.34 bitrate=5611.8kbits/s speed=0.0963x elapsed=0:01:37.00    frame=  229 fps=2.3 q=33.0 size=    6400KiB time=00:00:09.46 bitrate=5537.6kbits/s speed=0.0971x elapsed=0:01:37.50    frame=  230 fps=2.3 q=33.0 size=    6400KiB time=00:00:09.50 bitrate=5513.3kbits/s speed=0.097x elapsed=0:01:38.00    frame=  235 fps=2.4 q=33.0 size=    6400KiB time=00:00:09.71 bitrate=5395.0kbits/s speed=0.0987x elapsed=0:01:38.50    frame=  236 fps=2.4 q=33.0 size=    6400KiB time=00:00:09.75 bitrate=5372.0kbits/s speed=0.0986x elapsed=0:01:39.02    frame=  243 fps=2.4 q=33.0 size=    6656KiB time=00:00:10.05 bitrate=5424.6kbits/s speed=0.101x elapsed=0:01:39.52    frame=  245 fps=2.4 q=33.0 size=    6656KiB time=00:00:10.13 bitrate=5379.9kbits/s speed=0.101x elapsed=0:01:40.02    frame=  247 fps=2.5 q=33.0 size=    6656KiB time=00:00:10.21 bitrate=5336.0kbits/s speed=0.102x elapsed=0:01:40.53    frame=  251 fps=2.5 q=33.0 size=    6656KiB time=00:00:10.38 bitrate=5250.3kbits/s speed=0.103x elapsed=0:01:41.03    frame=  253 fps=2.5 q=33.0 size=    6656KiB time=00:00:10.46 bitrate=5208.5kbits/s speed=0.103x elapsed=0:01:41.53    frame=  257 fps=2.5 q=33.0 size=    6656KiB time=00:00:10.63 bitrate=5126.8kbits/s speed=0.104x elapsed=0:01:42.03    frame=  260 fps=2.5 q=33.0 size=    6656KiB time=00:00:10.76 bitrate=5067.2kbits/s speed=0.105x elapsed=0:01:42.53    frame=  260 fps=2.5 q=33.0 size=    6656KiB time=00:00:10.76 bitrate=5067.2kbits/s speed=0.104x elapsed=0:01:43.03    frame=  261 fps=2.5 q=33.0 size=    6656KiB time=00:00:10.80 bitrate=5047.6kbits/s speed=0.104x elapsed=0:01:43.54    frame=  264 fps=2.5 q=33.0 size=    6656KiB time=00:00:10.92 bitrate=4989.8kbits/s speed=0.105x elapsed=0:01:44.04    frame=  266 fps=2.5 q=33.0 size=    6656KiB time=00:00:11.01 bitrate=4952.0kbits/s speed=0.105x elapsed=0:01:44.55    frame=  268 fps=2.6 q=33.0 size=    6656KiB time=00:00:11.09 bitrate=4914.8kbits/s speed=0.106x elapsed=0:01:45.05    frame=  269 fps=2.5 q=33.0 size=    6656KiB time=00:00:11.13 bitrate=4896.3kbits/s speed=0.105x elapsed=0:01:45.55    frame=  271 fps=2.6 q=33.0 size=    6656KiB time=00:00:11.21 bitrate=4859.9kbits/s speed=0.106x elapsed=0:01:46.05    frame=  275 fps=2.6 q=33.0 size=    6656KiB time=00:00:11.38 bitrate=4788.7kbits/s speed=0.107x elapsed=0:01:46.55    frame=  281 fps=2.6 q=33.0 size=    6656KiB time=00:00:11.63 bitrate=4685.8kbits/s speed=0.109x elapsed=0:01:47.06    frame=  285 fps=2.6 q=33.0 size=    6656KiB time=00:00:11.80 bitrate=4619.5kbits/s speed=0.11x elapsed=0:01:47.56    frame=  287 fps=2.7 q=33.0 size=    6656KiB time=00:00:11.88 bitrate=4587.1kbits/s speed=0.11x elapsed=0:01:48.06    frame=  293 fps=2.7 q=33.0 size=    6656KiB time=00:00:12.13 bitrate=4492.5kbits/s speed=0.112x elapsed=0:01:48.56    frame=  297 fps=2.7 q=33.0 size=    6656KiB time=00:00:12.30 bitrate=4431.6kbits/s speed=0.113x elapsed=0:01:49.07    frame=  302 fps=2.8 q=33.0 size=    6656KiB time=00:00:12.51 bitrate=4357.7kbits/s speed=0.114x elapsed=0:01:49.57    frame=  305 fps=2.8 q=33.0 size=    6656KiB time=00:00:12.63 bitrate=4314.6kbits/s speed=0.115x elapsed=0:01:50.07    frame=  307 fps=2.8 q=33.0 size=    6656KiB time=00:00:12.72 bitrate=4286.3kbits/s speed=0.115x elapsed=0:01:50.57    frame=  311 fps=2.8 q=33.0 size=    6656KiB time=00:00:12.88 bitrate=4230.8kbits/s speed=0.116x elapsed=0:01:51.07    frame=  317 fps=2.8 q=33.0 size=    6656KiB time=00:00:13.13 bitrate=4150.2kbits/s speed=0.118x elapsed=0:01:51.57    frame=  320 fps=2.9 q=33.0 size=    6656KiB time=00:00:13.26 bitrate=4111.1kbits/s speed=0.118x elapsed=0:01:52.07    frame=  323 fps=2.9 q=33.0 size=    6656KiB time=N/A bitrate=N/A speed=N/A elapsed=0:01:52.57    frame=  328 fps=2.9 q=33.0 size=    6656KiB time=N/A bitrate=N/A speed=N/A elapsed=0:01:53.07    frame=  331 fps=2.9 q=33.0 size=    6656KiB time=N/A bitrate=N/A speed=N/A elapsed=0:01:53.57    frame=  337 fps=3.0 q=33.0 size=    6656KiB time=N/A bitrate=N/A speed=N/A elapsed=0:01:54.07    frame=  341 fps=3.0 q=33.0 size=    6656KiB time=N/A bitrate=N/A speed=N/A elapsed=0:01:54.57    frame=  343 fps=3.0 q=33.0 size=    6656KiB time=N/A bitrate=N/A speed=N/A elapsed=0:01:55.08    frame=  349 fps=3.0 q=33.0 size=    6656KiB time=N/A bitrate=N/A speed=N/A elapsed=0:01:55.58    frame=  349 fps=3.0 q=33.0 size=    6656KiB time=N/A bitrate=N/A speed=N/A elapsed=0:01:56.09    frame=  350 fps=3.0 q=33.0 size=    6656KiB time=N/A bitrate=N/A speed=N/A elapsed=0:01:56.59    frame=  357 fps=3.0 q=-1.0 size=    6656KiB time=N/A bitrate=N/A speed=N/A elapsed=0:01:57.10    [out#0/mp4 @ 0x557f33ea3e80] video:6612KiB audio:239KiB subtitle:0KiB other streams:0KiB global headers:0KiB muxing overhead: 0.173988%
frame=  360 fps=3.1 q=-1.0 Lsize=    6862KiB time=00:00:14.93 bitrate=3764.9kbits/s speed=0.127x elapsed=0:01:57.56    
[libx264 @ 0x557f33efe080] frame I:6     Avg QP:19.49  size: 61594
[libx264 @ 0x557f33efe080] frame P:171   Avg QP:21.95  size: 29916
[libx264 @ 0x557f33efe080] frame B:183   Avg QP:22.72  size:  7019
[libx264 @ 0x557f33efe080] consecutive B-frames: 26.9% 11.7% 12.5% 48.9%
[libx264 @ 0x557f33efe080] mb I  I16..4: 63.5% 35.9%  0.6%
[libx264 @ 0x557f33efe080] mb P  I16..4: 22.9% 15.6%  0.1%  P16..4:  7.5%  0.8%  0.1%  0.0%  0.0%    skip:53.1%
[libx264 @ 0x557f33efe080] mb B  I16..4:  1.9%  1.2%  0.0%  B16..8:  4.5%  0.2%  0.0%  direct: 2.8%  skip:89.4%  L0:49.9% L1:48.6% BI: 1.5%
[libx264 @ 0x557f33efe080] 8x8 transform intra:40.0% inter:82.5%
[libx264 @ 0x557f33efe080] coded y,uvDC,uvAC intra: 12.7% 24.8% 2.1% inter: 0.8% 4.6% 0.0%
[libx264 @ 0x557f33efe080] i16 v,h,dc,p: 58% 25%  7% 11%
[libx264 @ 0x557f33efe080] i8 v,h,dc,ddl,ddr,vr,hd,vl,hu: 25% 31% 30%  3%  2%  2%  2%  2%  2%
[libx264 @ 0x557f33efe080] i4 v,h,dc,ddl,ddr,vr,hd,vl,hu: 26% 25% 13%  4%  7%  8%  7%  5%  4%
[libx264 @ 0x557f33efe080] i8c dc,h,v,p: 58% 20% 19%  3%
[libx264 @ 0x557f33efe080] Weighted P-Frames: Y:7.6% UV:4.1%
[libx264 @ 0x557f33efe080] ref P L0: 85.4% 14.6%
[libx264 @ 0x557f33efe080] ref B L0: 85.2% 14.8%
[libx264 @ 0x557f33efe080] ref B L1: 97.8%  2.2%
[libx264 @ 0x557f33efe080] kb/s:3606.94
[aac @ 0x557f33fd2980] Qavg: 1108.607
Processing video /tmp/tmp_b0pp9a0/test_video.mp4 for format home
